G04*
G04 #@! TF.GenerationSoftware,Altium Limited,Altium Designer,23.8.1 (32)*
G04*
G04 Layer_Color=0*
%FSLAX25Y25*%
%MOIN*%
G70*
G04*
G04 #@! TF.SameCoordinates,E8196DF9-6BE1-4897-A204-F033BB6E7C32*
G04*
G04*
G04 #@! TF.FilePolarity,Positive*
G04*
G01*
G75*
%ADD11C,0.00394*%
D11*
X473425Y284449D02*
X477362D01*
X475394Y282480D02*
Y286417D01*
X446063Y332844D02*
X450000D01*
X448032Y330876D02*
Y334813D01*
X372146Y329232D02*
Y333169D01*
X370177Y331201D02*
X374114D01*
X372834Y318837D02*
X376771D01*
X374803Y316869D02*
Y320806D01*
X455319Y410331D02*
Y414268D01*
X453350Y412299D02*
X457288D01*
X477400Y422835D02*
X481337D01*
X479368Y420866D02*
Y424803D01*
X455307Y419882D02*
Y423819D01*
X453338Y421850D02*
X457275D01*
X507480Y296850D02*
X511417D01*
X509449Y294882D02*
Y298819D01*
X440551Y268110D02*
Y272047D01*
X438583Y270079D02*
X442520D01*
X421260Y250787D02*
Y254725D01*
X419291Y252756D02*
X423228D01*
X417323Y306693D02*
Y310630D01*
X415354Y308661D02*
X419291D01*
X452756Y315748D02*
Y319685D01*
X450787Y317717D02*
X454724D01*
X417323Y275590D02*
Y279527D01*
X415354Y277559D02*
X419291D01*
X399213Y204331D02*
Y208268D01*
X397244Y206299D02*
X401181D01*
X363779Y242914D02*
Y246850D01*
X361811Y244882D02*
X365748D01*
X339764Y184646D02*
Y188583D01*
X337795Y186614D02*
X341732D01*
X337008Y213779D02*
Y217717D01*
X335039Y215748D02*
X338976D01*
X337008Y229134D02*
Y233071D01*
X335039Y231102D02*
X338977D01*
X436319Y150591D02*
Y154528D01*
X434350Y152559D02*
X438287D01*
X276575Y304016D02*
Y307953D01*
X274606Y305985D02*
X278543D01*
X385638Y361319D02*
Y365256D01*
X383669Y363287D02*
X387606D01*
X401968Y159055D02*
Y162992D01*
X400000Y161024D02*
X403937D01*
X435827Y188189D02*
Y192126D01*
X433858Y190157D02*
X437795D01*
X417421Y220079D02*
Y224016D01*
X415453Y222047D02*
X419390D01*
X399606Y188583D02*
Y192520D01*
X397638Y190551D02*
X401575D01*
X342520Y287795D02*
X346457D01*
X344488Y285827D02*
Y289764D01*
X451870Y251870D02*
X455807D01*
X453839Y249902D02*
Y253838D01*
X431103Y253248D02*
X435040D01*
X433071Y251280D02*
Y255217D01*
X498425Y251969D02*
X502362D01*
X500394Y250000D02*
Y253937D01*
X462599Y220276D02*
X466536D01*
X464567Y218307D02*
Y222244D01*
X415354Y291339D02*
X419291D01*
X417323Y289370D02*
Y293307D01*
X336614Y332677D02*
Y336614D01*
X334646Y334646D02*
X338583D01*
X415354Y324803D02*
X419291D01*
X417323Y322835D02*
Y326772D01*
X462992Y315748D02*
Y319685D01*
X461024Y317717D02*
X464960D01*
X439567Y330815D02*
Y334752D01*
X437599Y332784D02*
X441536D01*
M02*
