G04*
G04 #@! TF.GenerationSoftware,Altium Limited,Altium Designer,23.8.1 (32)*
G04*
G04 Layer_Color=32896*
%FSLAX25Y25*%
%MOIN*%
G70*
G04*
G04 #@! TF.SameCoordinates,E8196DF9-6BE1-4897-A204-F033BB6E7C32*
G04*
G04*
G04 #@! TF.FilePolarity,Positive*
G04*
G01*
G75*
%ADD10C,0.00787*%
%ADD14C,0.00700*%
D10*
X470494Y486527D02*
X477383D01*
X470472Y479823D02*
X477362D01*
X470472Y487795D02*
X477559D01*
X470472Y494488D02*
X477559D01*
X475886Y456754D02*
Y462659D01*
X468602Y456754D02*
Y462659D01*
X434547Y456829D02*
Y462735D01*
X441831Y456829D02*
Y462735D01*
X453051Y456791D02*
Y462697D01*
X460335Y456791D02*
Y462697D01*
X451181Y456791D02*
Y462697D01*
X443898Y456791D02*
Y462697D01*
X477657Y456731D02*
Y462636D01*
X484941Y456731D02*
Y462636D01*
X487008Y456731D02*
Y462636D01*
X494291Y456731D02*
Y462636D01*
D14*
X492657Y449288D02*
Y452287D01*
X491157D01*
X490657Y451787D01*
Y450787D01*
X491157Y450288D01*
X492657D01*
X491657D02*
X490657Y449288D01*
X487658Y452287D02*
X488658Y451787D01*
X489658Y450787D01*
Y449788D01*
X489158Y449288D01*
X488158D01*
X487658Y449788D01*
Y450288D01*
X488158Y450787D01*
X489658D01*
X483798Y449190D02*
Y452188D01*
X482299D01*
X481799Y451689D01*
Y450689D01*
X482299Y450189D01*
X483798D01*
X482799D02*
X481799Y449190D01*
X478800Y452188D02*
X480799D01*
Y450689D01*
X479800Y451189D01*
X479300D01*
X478800Y450689D01*
Y449689D01*
X479300Y449190D01*
X480300D01*
X480799Y449689D01*
X474940Y449386D02*
Y452385D01*
X473441D01*
X472941Y451886D01*
Y450886D01*
X473441Y450386D01*
X474940D01*
X473941D02*
X472941Y449386D01*
X470442D02*
Y452385D01*
X471941Y450886D01*
X469942D01*
X459586Y443382D02*
Y446381D01*
X458086D01*
X457586Y445882D01*
Y444882D01*
X458086Y444382D01*
X459586D01*
X458586D02*
X457586Y443382D01*
X456587Y445882D02*
X456087Y446381D01*
X455087D01*
X454587Y445882D01*
Y445382D01*
X455087Y444882D01*
X455587D01*
X455087D01*
X454587Y444382D01*
Y443882D01*
X455087Y443382D01*
X456087D01*
X456587Y443882D01*
X450137Y443382D02*
Y446381D01*
X448637D01*
X448138Y445882D01*
Y444882D01*
X448637Y444382D01*
X450137D01*
X449137D02*
X448138Y443382D01*
X445139D02*
X447138D01*
X445139Y445382D01*
Y445882D01*
X445638Y446381D01*
X446638D01*
X447138Y445882D01*
X439795Y443382D02*
Y446381D01*
X438295D01*
X437795Y445882D01*
Y444882D01*
X438295Y444382D01*
X439795D01*
X438795D02*
X437795Y443382D01*
X436796D02*
X435796D01*
X436296D01*
Y446381D01*
X436796Y445882D01*
X465657Y484071D02*
X466157Y484570D01*
X467157D01*
X467657Y484071D01*
Y482071D01*
X467157Y481571D01*
X466157D01*
X465657Y482071D01*
X462658Y481571D02*
X464658D01*
X462658Y483571D01*
Y484071D01*
X463158Y484570D01*
X464158D01*
X464658Y484071D01*
X465748Y492338D02*
X466248Y492838D01*
X467247D01*
X467747Y492338D01*
Y490339D01*
X467247Y489839D01*
X466248D01*
X465748Y490339D01*
X464748Y489839D02*
X463749D01*
X464249D01*
Y492838D01*
X464748Y492338D01*
M02*
