G04*
G04 #@! TF.GenerationSoftware,Altium Limited,Altium Designer,23.8.1 (32)*
G04*
G04 Layer_Physical_Order=4*
G04 Layer_Color=16711680*
%FSLAX25Y25*%
%MOIN*%
G70*
G04*
G04 #@! TF.SameCoordinates,E8196DF9-6BE1-4897-A204-F033BB6E7C32*
G04*
G04*
G04 #@! TF.FilePolarity,Positive*
G04*
G01*
G75*
%ADD10C,0.00787*%
%ADD27R,0.02953X0.03543*%
%ADD28R,0.03788X0.03681*%
%ADD77C,0.03937*%
%ADD80C,0.05693*%
%ADD81C,0.11870*%
%ADD82C,0.05984*%
%ADD83C,0.05906*%
%ADD84R,0.05906X0.05906*%
%ADD85C,0.05000*%
%ADD86C,0.02400*%
%ADD87C,0.02500*%
D10*
X385039Y257087D02*
X436614D01*
X378642Y263484D02*
X385039Y257087D01*
X436614D02*
X441339Y261811D01*
X288976Y269685D02*
X342520D01*
X346063Y266142D01*
X420347Y283733D02*
X440820D01*
X442913Y285827D01*
X416535Y279921D02*
X420347Y283733D01*
X409055Y285827D02*
X433837D01*
X435018Y287008D01*
X404724Y283733D02*
X408536Y279921D01*
X416535D01*
X295544Y283733D02*
X404724D01*
X417323Y276378D02*
X422441Y281496D01*
X444095D01*
X402756D02*
X407874Y276378D01*
X292520Y280709D02*
X295544Y283733D01*
X363386Y268898D02*
X375984Y281496D01*
X402756D01*
X407874Y276378D02*
X417323D01*
X442913Y285827D02*
X454724D01*
X365354Y266142D02*
X374803Y275590D01*
X404331D01*
X320965Y263484D02*
X378642D01*
X346063Y266142D02*
X365354D01*
X344094Y274016D02*
X349213Y268898D01*
X363386D01*
X277559Y274016D02*
X344094D01*
X476575Y491339D02*
X481102D01*
X476378Y491142D02*
X476575Y491339D01*
X442913Y443307D02*
Y461811D01*
X443663Y462561D01*
X433858Y434252D02*
X442913Y443307D01*
X433858Y398819D02*
Y434252D01*
Y398819D02*
X482776Y349902D01*
X486122Y441437D02*
Y461024D01*
X476772Y442520D02*
Y462039D01*
X486122Y461024D02*
X487598Y462500D01*
X476772Y462039D02*
X477233Y462500D01*
X486122Y441437D02*
X516929Y410630D01*
X476772Y442520D02*
X501673Y417618D01*
X477233Y462500D02*
X481201D01*
X452165Y418110D02*
Y461932D01*
Y418110D02*
X476083Y394193D01*
X452794Y462561D02*
X456791D01*
X456845D01*
X452165Y461932D02*
X452794Y462561D01*
X443663D02*
X447638D01*
X466929Y461122D02*
X468330Y462523D01*
X466929Y417421D02*
X493996Y390354D01*
X468330Y462523D02*
X472342D01*
X466929Y417421D02*
Y461122D01*
X479113Y483366D02*
X480786Y481693D01*
X480807D01*
X476476Y483366D02*
X479113D01*
X487992Y468996D02*
X490551Y466437D01*
Y462500D02*
Y466437D01*
X476279Y483169D02*
X476476Y483366D01*
X276722Y336171D02*
X276772Y336221D01*
X276673Y322736D02*
X276722Y322785D01*
Y336171D01*
X320866Y263386D02*
X320965Y263484D01*
X274016Y277559D02*
X277559Y274016D01*
X516929Y294094D02*
Y410630D01*
X501673Y327658D02*
Y417618D01*
Y327658D02*
X510039Y319291D01*
X482283Y317622D02*
X493996Y329334D01*
Y390354D01*
X429823Y392618D02*
X488976Y333465D01*
X429823Y392618D02*
Y460630D01*
X493307Y314961D02*
X498032D01*
X476083Y365650D02*
Y394193D01*
X475984Y365551D02*
X476083Y365650D01*
X482776Y345669D02*
Y349902D01*
X482677Y345571D02*
X482776Y345669D01*
X456845Y462561D02*
X459920Y465636D01*
Y465690D02*
X462046Y467815D01*
X459920Y465636D02*
Y465690D01*
X462046Y467815D02*
X462106D01*
X472342Y462523D02*
Y466711D01*
X470768Y468286D02*
X472342Y466711D01*
X438287Y462598D02*
X438294Y462605D01*
X441536Y474311D02*
X447736D01*
X438294Y471070D02*
X441536Y474311D01*
X438294Y462605D02*
Y471070D01*
X447638Y462561D02*
Y468701D01*
X487598Y462500D02*
X490551D01*
X479429Y468209D02*
X481201Y466437D01*
Y462500D02*
Y466437D01*
X431791Y462598D02*
X438287D01*
X429823Y460630D02*
X431791Y462598D01*
X441339Y253543D02*
X444882Y257087D01*
X317804Y253543D02*
X441339D01*
X314961Y251181D02*
X315442D01*
X317804Y253543D01*
X477362Y240846D02*
X477411Y240896D01*
Y255758D02*
X477461Y255807D01*
X477411Y240896D02*
Y255758D01*
X455512Y291339D02*
X458661Y294488D01*
X305512Y291339D02*
X455512D01*
X454724Y285827D02*
X468898Y300000D01*
X476772D01*
X435018Y287008D02*
X438189D01*
X485433Y296457D02*
X499213Y310236D01*
X438189Y265354D02*
X469291Y296457D01*
X485433D01*
X414567Y265354D02*
X438189D01*
X499213Y310236D02*
Y313779D01*
X498032Y314961D02*
X499213Y313779D01*
X404331Y275590D02*
X414567Y265354D01*
X283465Y289764D02*
X290551D01*
X292211Y291424D02*
Y296936D01*
X290551Y289764D02*
X292211Y291424D01*
X281102Y292126D02*
X283465Y289764D01*
X292211Y296936D02*
X292520Y297244D01*
D27*
X476279Y483169D02*
D03*
X471555D02*
D03*
X471654Y491142D02*
D03*
X476378D02*
D03*
D28*
X472342Y456890D02*
D03*
Y462523D02*
D03*
X438287Y462598D02*
D03*
Y456965D02*
D03*
X456791Y462561D02*
D03*
Y456927D02*
D03*
X447638D02*
D03*
Y462561D02*
D03*
X481201Y462500D02*
D03*
Y456867D02*
D03*
X490551Y462500D02*
D03*
Y456867D02*
D03*
D77*
X438287Y450492D02*
Y456965D01*
X438189Y450394D02*
X438287Y450492D01*
X490551Y450350D02*
Y456867D01*
X481102Y450350D02*
X481201Y450449D01*
Y456867D01*
X472342Y450492D02*
X472441Y450394D01*
X472342Y450492D02*
Y456890D01*
X447638Y450394D02*
X447638Y450394D01*
Y456927D01*
X456693Y450394D02*
X456791Y450492D01*
Y456927D01*
X466339Y483169D02*
X471555D01*
X471654Y483268D01*
Y491142D01*
D80*
X296772Y363465D02*
D03*
X306772D02*
D03*
D81*
X326772Y383465D02*
D03*
X286772D02*
D03*
D82*
X376890Y384409D02*
D03*
X381890Y490394D02*
D03*
X386890Y384409D02*
D03*
D83*
X327756Y325787D02*
D03*
X345472D02*
D03*
Y300197D02*
D03*
X356890Y366732D02*
D03*
Y341142D02*
D03*
X374606D02*
D03*
D84*
X327756Y300197D02*
D03*
X374606Y366732D02*
D03*
D85*
X444685Y421850D02*
D03*
X371654Y258268D02*
D03*
X282283Y232677D02*
D03*
X411417Y261417D02*
D03*
X355118Y273622D02*
D03*
X385827Y316142D02*
D03*
X438189Y450394D02*
D03*
X490551Y450350D02*
D03*
X481102D02*
D03*
X472441Y450394D02*
D03*
X447638D02*
D03*
X456693D02*
D03*
X482283Y416142D02*
D03*
X509449Y305118D02*
D03*
X349213Y200394D02*
D03*
Y216142D02*
D03*
X348819Y232283D02*
D03*
X439567Y341732D02*
D03*
X455118Y324803D02*
D03*
X494882Y244980D02*
D03*
X502854Y245472D02*
D03*
X473228Y250000D02*
D03*
X466339Y483169D02*
D03*
X433071Y244980D02*
D03*
X456299Y245276D02*
D03*
X473228Y340945D02*
D03*
D86*
X292126Y231102D02*
D03*
X288976Y269685D02*
D03*
X313779Y337402D02*
D03*
X409055Y285827D02*
D03*
X432677Y277953D02*
D03*
X357087Y319291D02*
D03*
X301969Y218110D02*
D03*
X347244Y366929D02*
D03*
X317717Y300394D02*
D03*
X481102Y491339D02*
D03*
X509449Y290158D02*
D03*
X480807Y481693D02*
D03*
X440945Y177165D02*
D03*
X446063Y190551D02*
D03*
X447638Y205512D02*
D03*
X446063Y317717D02*
D03*
X462598Y245276D02*
D03*
X487992Y468996D02*
D03*
X444390Y486221D02*
D03*
X457087Y340158D02*
D03*
X276772Y336221D02*
D03*
X276673Y322736D02*
D03*
X320866Y263386D02*
D03*
X510039Y319291D02*
D03*
X488976Y333465D02*
D03*
X493307Y314961D02*
D03*
X452362Y404823D02*
D03*
X475984Y365551D02*
D03*
X482677Y345571D02*
D03*
X447736Y474311D02*
D03*
X447638Y468701D02*
D03*
X462106Y467815D02*
D03*
X479429Y468209D02*
D03*
X470768Y468286D02*
D03*
X443701Y247736D02*
D03*
X477362Y240846D02*
D03*
X477461Y255807D02*
D03*
X458661Y294488D02*
D03*
X305512Y291339D02*
D03*
X476772Y300000D02*
D03*
X438189Y287008D02*
D03*
X462598Y301181D02*
D03*
X292520Y280709D02*
D03*
X417323Y270472D02*
D03*
X387008Y265748D02*
D03*
X292520Y297244D02*
D03*
X274016Y277559D02*
D03*
X314961Y251181D02*
D03*
X444882Y257087D02*
D03*
X441339Y261811D02*
D03*
X417323Y332677D02*
D03*
X458661Y277559D02*
D03*
X464567Y211417D02*
D03*
X394094Y161024D02*
D03*
X385827Y174803D02*
D03*
X387795Y206299D02*
D03*
Y190157D02*
D03*
X516929Y294094D02*
D03*
X281102Y292126D02*
D03*
X482283Y317622D02*
D03*
D87*
X374016Y244882D02*
D03*
X444095Y281496D02*
D03*
X325590Y230709D02*
D03*
X325591Y215748D02*
D03*
X323622Y200787D02*
D03*
X331496Y186614D02*
D03*
X357874Y162992D02*
D03*
M02*
