G04*
G04 #@! TF.GenerationSoftware,Altium Limited,Altium Designer,23.8.1 (32)*
G04*
G04 Layer_Color=8388736*
%FSLAX25Y25*%
%MOIN*%
G70*
G04*
G04 #@! TF.SameCoordinates,E8196DF9-6BE1-4897-A204-F033BB6E7C32*
G04*
G04*
G04 #@! TF.FilePolarity,Negative*
G04*
G01*
G75*
%ADD16R,0.01417X0.01260*%
%ADD21R,0.04724X0.01181*%
%ADD22R,0.01181X0.04724*%
%ADD23R,0.01181X0.04724*%
%ADD25R,0.03591X0.03772*%
%ADD27R,0.02953X0.03543*%
%ADD28R,0.03788X0.03681*%
%ADD29R,0.03772X0.03591*%
%ADD30R,0.03681X0.03788*%
%ADD31R,0.03543X0.02953*%
%ADD33R,0.04724X0.10630*%
%ADD36R,0.02953X0.03937*%
%ADD39R,0.01772X0.05433*%
%ADD40R,0.05610X0.06102*%
%ADD41R,0.03937X0.07480*%
%ADD42R,0.07087X0.07480*%
%ADD43R,0.06496X0.05118*%
%ADD45R,0.01480X0.05764*%
G04:AMPARAMS|DCode=46|XSize=57.64mil|YSize=14.8mil|CornerRadius=7.4mil|HoleSize=0mil|Usage=FLASHONLY|Rotation=270.000|XOffset=0mil|YOffset=0mil|HoleType=Round|Shape=RoundedRectangle|*
%AMROUNDEDRECTD46*
21,1,0.05764,0.00000,0,0,270.0*
21,1,0.04284,0.01480,0,0,270.0*
1,1,0.01480,0.00000,-0.02142*
1,1,0.01480,0.00000,0.02142*
1,1,0.01480,0.00000,0.02142*
1,1,0.01480,0.00000,-0.02142*
%
%ADD46ROUNDEDRECTD46*%
%ADD48R,0.02559X0.02756*%
%ADD51R,0.02756X0.02559*%
%ADD53R,0.03937X0.02953*%
%ADD54R,0.03701X0.11772*%
%ADD55R,0.04528X0.03937*%
%ADD56R,0.06299X0.08268*%
%ADD57R,0.07874X0.06299*%
%ADD58R,0.03937X0.06693*%
%ADD59R,0.04134X0.04331*%
%ADD60R,0.04921X0.04331*%
%ADD61R,0.03937X0.04528*%
%ADD62R,0.05669X0.11535*%
%ADD63R,0.04331X0.06299*%
G04:AMPARAMS|DCode=64|XSize=43.31mil|YSize=76.77mil|CornerRadius=5.89mil|HoleSize=0mil|Usage=FLASHONLY|Rotation=180.000|XOffset=0mil|YOffset=0mil|HoleType=Round|Shape=RoundedRectangle|*
%AMROUNDEDRECTD64*
21,1,0.04331,0.06500,0,0,180.0*
21,1,0.03154,0.07677,0,0,180.0*
1,1,0.01177,-0.01577,0.03250*
1,1,0.01177,0.01577,0.03250*
1,1,0.01177,0.01577,-0.03250*
1,1,0.01177,-0.01577,-0.03250*
%
%ADD64ROUNDEDRECTD64*%
G04:AMPARAMS|DCode=65|XSize=133.86mil|YSize=76.77mil|CornerRadius=6mil|HoleSize=0mil|Usage=FLASHONLY|Rotation=180.000|XOffset=0mil|YOffset=0mil|HoleType=Round|Shape=RoundedRectangle|*
%AMROUNDEDRECTD65*
21,1,0.13386,0.06476,0,0,180.0*
21,1,0.12185,0.07677,0,0,180.0*
1,1,0.01201,-0.06093,0.03238*
1,1,0.01201,0.06093,0.03238*
1,1,0.01201,0.06093,-0.03238*
1,1,0.01201,-0.06093,-0.03238*
%
%ADD65ROUNDEDRECTD65*%
%ADD66R,0.04331X0.04134*%
%ADD67R,0.05906X0.08268*%
%ADD68R,0.05709X0.05118*%
%ADD69R,0.05512X0.03150*%
%ADD70R,0.06299X0.04331*%
%ADD71C,0.00787*%
%ADD72C,0.06480*%
%ADD73C,0.12658*%
%ADD74C,0.06772*%
%ADD75C,0.06693*%
%ADD76R,0.06693X0.06693*%
D16*
X308898Y337402D02*
D03*
X306693D02*
D03*
D21*
X452756Y299213D02*
D03*
Y297244D02*
D03*
Y295276D02*
D03*
Y293307D02*
D03*
Y291339D02*
D03*
Y289370D02*
D03*
Y287402D02*
D03*
Y285433D02*
D03*
Y283465D02*
D03*
Y281496D02*
D03*
Y279528D02*
D03*
Y277559D02*
D03*
Y275591D02*
D03*
Y273622D02*
D03*
Y271654D02*
D03*
Y269685D02*
D03*
X498031D02*
D03*
Y271654D02*
D03*
Y273622D02*
D03*
Y275591D02*
D03*
Y277559D02*
D03*
Y279528D02*
D03*
Y281496D02*
D03*
Y283465D02*
D03*
Y285433D02*
D03*
Y287402D02*
D03*
Y289370D02*
D03*
Y291339D02*
D03*
Y293307D02*
D03*
Y295276D02*
D03*
Y297244D02*
D03*
Y299213D02*
D03*
D22*
X460630Y261811D02*
D03*
X462598D02*
D03*
X464567D02*
D03*
X466535D02*
D03*
X468504D02*
D03*
X470472D02*
D03*
X472441D02*
D03*
X474409D02*
D03*
X476378D02*
D03*
X478346D02*
D03*
X480315D02*
D03*
X482283D02*
D03*
X484252D02*
D03*
X486220D02*
D03*
X488189D02*
D03*
X490157D02*
D03*
Y307087D02*
D03*
X488189D02*
D03*
X486220D02*
D03*
X484252D02*
D03*
X482283D02*
D03*
X480315D02*
D03*
X478346D02*
D03*
X476378D02*
D03*
X472441D02*
D03*
X470472D02*
D03*
X468504D02*
D03*
X466535D02*
D03*
X464567D02*
D03*
X462598D02*
D03*
X460630D02*
D03*
D23*
X474409D02*
D03*
D25*
X448032Y329982D02*
D03*
Y335707D02*
D03*
X421260Y249894D02*
D03*
Y255618D02*
D03*
X417323Y305799D02*
D03*
Y311524D02*
D03*
X385638Y360425D02*
D03*
Y366150D02*
D03*
X417323Y288476D02*
D03*
Y294201D02*
D03*
X439567Y335646D02*
D03*
Y329921D02*
D03*
D27*
X369783Y331201D02*
D03*
X374508D02*
D03*
X450394Y317717D02*
D03*
X455118D02*
D03*
X337402Y186614D02*
D03*
X342126D02*
D03*
X399606Y161024D02*
D03*
X404331D02*
D03*
X456201Y251870D02*
D03*
X451476D02*
D03*
X502756Y251969D02*
D03*
X498032D02*
D03*
X334252Y334646D02*
D03*
X338976D02*
D03*
X465354Y317717D02*
D03*
X460630D02*
D03*
D28*
X374803Y321654D02*
D03*
Y316020D02*
D03*
D29*
X458181Y412299D02*
D03*
X452457D02*
D03*
X452445Y421850D02*
D03*
X458169D02*
D03*
D30*
X476552Y422835D02*
D03*
X482185D02*
D03*
D31*
X509449Y294488D02*
D03*
Y299213D02*
D03*
X440551Y267717D02*
D03*
Y272441D02*
D03*
X417323Y279921D02*
D03*
Y275197D02*
D03*
X344488Y290158D02*
D03*
Y285433D02*
D03*
X417323Y327165D02*
D03*
Y322441D02*
D03*
D33*
X404331Y206299D02*
D03*
X394094D02*
D03*
X331890Y215748D02*
D03*
X342126D02*
D03*
X342126Y231102D02*
D03*
X331890D02*
D03*
X440945Y190157D02*
D03*
X430709D02*
D03*
X394488Y190551D02*
D03*
X404724D02*
D03*
D36*
X366732Y244882D02*
D03*
X360827D02*
D03*
D39*
X441437Y161653D02*
D03*
X438878D02*
D03*
X436319D02*
D03*
X433760D02*
D03*
X431201D02*
D03*
D40*
X446112Y161319D02*
D03*
X426525D02*
D03*
D41*
X442421Y151181D02*
D03*
D42*
X431791D02*
D03*
D43*
X449606D02*
D03*
X423032D02*
D03*
D45*
X279134Y309213D02*
D03*
D46*
X276575D02*
D03*
X274016D02*
D03*
Y302756D02*
D03*
X279134D02*
D03*
D48*
X414764Y222047D02*
D03*
X420079D02*
D03*
D51*
X433071Y255906D02*
D03*
Y250591D02*
D03*
D53*
X464567Y223228D02*
D03*
Y217323D02*
D03*
D54*
X307244Y259331D02*
D03*
Y243307D02*
D03*
X302244Y259331D02*
D03*
Y243307D02*
D03*
X297244Y259331D02*
D03*
Y243307D02*
D03*
X292244Y259331D02*
D03*
Y243307D02*
D03*
X287244Y259331D02*
D03*
Y243307D02*
D03*
X282244Y259331D02*
D03*
Y243307D02*
D03*
X277244Y259331D02*
D03*
Y243307D02*
D03*
D55*
X306693Y349606D02*
D03*
Y344685D02*
D03*
X355118Y285433D02*
D03*
Y280315D02*
D03*
D56*
X486909Y485630D02*
D03*
X435138Y489567D02*
D03*
D57*
X458169Y433858D02*
D03*
X476673D02*
D03*
D58*
X483760Y474409D02*
D03*
X479429D02*
D03*
X475098Y475197D02*
D03*
X470768Y474409D02*
D03*
X466437Y475197D02*
D03*
X462106Y474409D02*
D03*
X457776Y473622D02*
D03*
X453445Y474409D02*
D03*
D59*
X462451Y250148D02*
D03*
X467569D02*
D03*
X399213Y222047D02*
D03*
X404331D02*
D03*
X430315Y177165D02*
D03*
X435433D02*
D03*
D60*
X357087Y331102D02*
D03*
Y325590D02*
D03*
X301969Y230709D02*
D03*
Y225197D02*
D03*
D61*
X473228Y334646D02*
D03*
X468110D02*
D03*
X380118Y258268D02*
D03*
X385236D02*
D03*
X462205Y334646D02*
D03*
X457087D02*
D03*
D62*
X404213Y174803D02*
D03*
X392520D02*
D03*
X330433Y200394D02*
D03*
X342126D02*
D03*
X442067Y206299D02*
D03*
X430374D02*
D03*
D63*
X349606Y244882D02*
D03*
X342126D02*
D03*
D64*
X357874Y170374D02*
D03*
X366929D02*
D03*
X375984D02*
D03*
D65*
X366929Y194980D02*
D03*
D66*
X292520Y308858D02*
D03*
Y303740D02*
D03*
X403543Y250590D02*
D03*
Y245473D02*
D03*
X432874Y267520D02*
D03*
Y272638D02*
D03*
D67*
X397638Y290945D02*
D03*
Y303543D02*
D03*
X375984Y290945D02*
D03*
Y303543D02*
D03*
D68*
X490158Y251969D02*
D03*
X483465D02*
D03*
D69*
X403543Y265748D02*
D03*
Y258268D02*
D03*
X393701D02*
D03*
Y262008D02*
D03*
Y265748D02*
D03*
D70*
X464567Y228937D02*
D03*
Y236417D02*
D03*
D71*
X513779Y150000D02*
D03*
X259842D02*
D03*
Y484646D02*
D03*
X513779D02*
D03*
D72*
X296772Y363465D02*
D03*
X306772D02*
D03*
D73*
X326772Y383465D02*
D03*
X286772D02*
D03*
D74*
X376890Y384409D02*
D03*
X381890Y490394D02*
D03*
X386890Y384409D02*
D03*
D75*
X327756Y325787D02*
D03*
X345472D02*
D03*
Y300197D02*
D03*
X356890Y366732D02*
D03*
Y341142D02*
D03*
X374606D02*
D03*
D76*
X327756Y300197D02*
D03*
X374606Y366732D02*
D03*
M02*
