G04*
G04 #@! TF.GenerationSoftware,Altium Limited,Altium Designer,23.8.1 (32)*
G04*
G04 Layer_Color=255*
%FSLAX25Y25*%
%MOIN*%
G70*
G04*
G04 #@! TF.SameCoordinates,E8196DF9-6BE1-4897-A204-F033BB6E7C32*
G04*
G04*
G04 #@! TF.FilePolarity,Positive*
G04*
G01*
G75*
%ADD27R,0.02953X0.03543*%
%ADD28R,0.03788X0.03681*%
%ADD80C,0.05693*%
%ADD81C,0.11870*%
%ADD82C,0.05984*%
%ADD83C,0.05906*%
%ADD84R,0.05906X0.05906*%
D27*
X476279Y483169D02*
D03*
X471555D02*
D03*
X471654Y491142D02*
D03*
X476378D02*
D03*
D28*
X472342Y456890D02*
D03*
Y462523D02*
D03*
X438287Y462598D02*
D03*
Y456965D02*
D03*
X456791Y462561D02*
D03*
Y456927D02*
D03*
X447638D02*
D03*
Y462561D02*
D03*
X481201Y462500D02*
D03*
Y456867D02*
D03*
X490551Y462500D02*
D03*
Y456867D02*
D03*
D80*
X296772Y363465D02*
D03*
X306772D02*
D03*
D81*
X326772Y383465D02*
D03*
X286772D02*
D03*
D82*
X376890Y384409D02*
D03*
X381890Y490394D02*
D03*
X386890Y384409D02*
D03*
D83*
X327756Y325787D02*
D03*
X345472D02*
D03*
Y300197D02*
D03*
X356890Y366732D02*
D03*
Y341142D02*
D03*
X374606D02*
D03*
D84*
X327756Y300197D02*
D03*
X374606Y366732D02*
D03*
M02*
