M48
;Layer_Color=9474304
;FILE_FORMAT=2:5
INCH,LZ
;TYPE=PLATED
T01F00S00C0.01200
T02F00S00C0.02800
T03F00S00C0.03504
T04F00S00C0.03898
T05F00S00C0.04016
T06F00S00C0.07913
;TYPE=NON_PLATED
T07F00S00C0.12598
%
T01
X0477362Y0240846
X0477461Y0255807
X0476772Y03
X0509449Y0290158
X0516929Y0294094
X0458661Y0294488
X0462598Y0301181
X0458661Y0277559
X0444095Y0281496
X0438189Y0287008
X0432677Y0277953
X0417323Y0270472
X0409055Y0285827
X0387008Y0265748
X0374016Y0244882
X0387795Y0206299
Y0190157
X0385827Y0174803
X0394094Y0161024
X0357874Y0162992
X0331496Y0186614
X0323622Y0200787
X0325591Y0215748
X032559Y0230709
X0314961Y0251181
X0320866Y0263386
X0317717Y0300394
X0441339Y0261811
X0444882Y0257087
X0443701Y0247736
X0462598Y0245276
X0464567Y0211417
X0447638Y0205512
X0446063Y0190551
X0440945Y0177165
X0301969Y021811
X0292126Y0231102
X0288976Y0269685
X029252Y0280709
Y0297244
X0281102Y0292126
X0274016Y0277559
X0305512Y0291339
X0276673Y0322736
X0276772Y0336221
X0313779Y0337402
X0357087Y0319291
X0347244Y0366929
X0417323Y0332677
X0446063Y0317717
X0457087Y0340158
X0452362Y0404823
X0447638Y0468701
X0462106Y0467815
X0470768Y0468286
X0479429Y0468209
X0475984Y0365551
X0482677Y0345571
X0488976Y0333465
X0482283Y0317622
X0493307Y0314961
X0510039Y0319291
X0487992Y0468996
X0480807Y0481693
X0481102Y0491339
X044439Y0486221
X0447736Y0474311
T02
X0473228Y025
X0494882Y024498
X0502854Y0245472
X0509449Y0305118
X0456299Y0245276
X0433071Y024498
X0411417Y0261417
X0371654Y0258268
X0355118Y0273622
X0348819Y0232283
X0349213Y0216142
Y0200394
X0282283Y0232677
X0385827Y0316142
X0455118Y0324803
X0439567Y0341732
X0444685Y042185
X0447638Y0450394
X0456693
X0438189
X0472441
X0481102Y045035
X0490551
X0482283Y0416142
X0473228Y0340945
X0466339Y0483169
T03
X0296772Y0363465
X0306772
T04
X0327756Y0300197
X0345472
Y0325787
X0327756
X035689Y0341142
X0374606
Y0366732
X035689
T05
X037689Y0384409
X038689
X038189Y0490394
T06
X0286772Y0383465
X0326772
T07
X0259842Y015
X0513779
Y0484646
X0259842
M30
