G04*
G04 #@! TF.GenerationSoftware,Altium Limited,Altium Designer,23.8.1 (32)*
G04*
G04 Layer_Color=32768*
%FSLAX25Y25*%
%MOIN*%
G70*
G04*
G04 #@! TF.SameCoordinates,E8196DF9-6BE1-4897-A204-F033BB6E7C32*
G04*
G04*
G04 #@! TF.FilePolarity,Positive*
G04*
G01*
G75*
%ADD10C,0.00787*%
%ADD11C,0.00394*%
%ADD98C,0.00197*%
D10*
X448130Y488583D02*
Y492283D01*
Y488583D02*
X488779D01*
Y432283D02*
Y488583D01*
X433465Y432283D02*
X488779D01*
X433465D02*
Y492283D01*
X448130D01*
X278425Y414449D02*
X335118D01*
Y358937D02*
Y414449D01*
X278425Y358937D02*
X335118D01*
X278425D02*
Y414449D01*
X281772D02*
Y495945D01*
X331772D01*
Y414449D02*
Y495945D01*
D11*
X306693Y345276D02*
Y349016D01*
X304823Y347146D02*
X308563D01*
X465010Y248258D02*
Y252037D01*
X463120Y250148D02*
X466900D01*
X379921Y437402D02*
X383858D01*
X381890Y435433D02*
Y439370D01*
X334646Y312992D02*
X338583D01*
X336614Y311023D02*
Y314961D01*
X365748Y351968D02*
Y355906D01*
X363779Y353937D02*
X367717D01*
X357087Y326477D02*
Y330217D01*
X355217Y328346D02*
X358957D01*
X470669Y332776D02*
Y336516D01*
X468799Y334646D02*
X472539D01*
X341929Y242421D02*
X349803D01*
X341929D02*
Y247342D01*
X349803D01*
Y242421D02*
Y247342D01*
X348161Y242421D02*
X349803Y244063D01*
X366929Y180709D02*
Y184646D01*
X364961Y182677D02*
X368898D01*
X401772Y220158D02*
Y223937D01*
X399882Y222047D02*
X403661D01*
X430984Y177165D02*
X434764D01*
X432874Y175276D02*
Y179055D01*
X292520Y304410D02*
Y308189D01*
X290630Y306299D02*
X294409D01*
X384843Y297244D02*
X388780D01*
X386811Y295276D02*
Y299213D01*
X301969Y226083D02*
Y229823D01*
X300098Y227953D02*
X303838D01*
X403543Y246142D02*
Y249921D01*
X401653Y248031D02*
X405433D01*
X355118Y281004D02*
Y284744D01*
X353248Y282874D02*
X356988D01*
X382677Y256398D02*
Y260138D01*
X380807Y258268D02*
X384547D01*
X430984Y270079D02*
X434764D01*
X432874Y268189D02*
Y271969D01*
X486811Y250079D02*
Y253858D01*
X484921Y251969D02*
X488701D01*
X459646Y332776D02*
Y336516D01*
X457776Y334646D02*
X461516D01*
X395472Y263976D02*
X399213Y267717D01*
X395472Y256299D02*
Y267717D01*
Y256299D02*
X401772D01*
Y267717D01*
X395472D02*
X401772D01*
X462106Y228740D02*
Y236614D01*
X467028D01*
Y228740D02*
Y236614D01*
X462106Y228740D02*
X467028D01*
X462106Y230382D02*
X463748Y228740D01*
D98*
X273760Y236831D02*
X310728D01*
Y265807D01*
X273760D02*
X310728D01*
X273760Y236831D02*
Y265807D01*
X303740Y352264D02*
X309646D01*
X303740Y342028D02*
X309646D01*
Y352264D01*
X303740Y342028D02*
Y352264D01*
X460482Y247785D02*
X469537D01*
X460482Y252510D02*
X469537D01*
X460482Y247785D02*
Y252510D01*
X469537Y247785D02*
Y252510D01*
X343996Y381024D02*
Y493780D01*
Y381024D02*
X419784D01*
X343996Y493780D02*
X419784D01*
Y381024D02*
Y493780D01*
X324409Y329134D02*
X348819D01*
X324409Y296850D02*
Y329134D01*
Y296850D02*
X348819D01*
Y329134D01*
X353543Y337795D02*
Y370079D01*
X377953D01*
Y337795D02*
Y370079D01*
X353543Y337795D02*
X377953D01*
X352953Y334842D02*
X361220D01*
X352953Y321850D02*
X361220D01*
Y334842D01*
X352953Y321850D02*
Y334842D01*
X465551Y331693D02*
X475788D01*
X465551Y337598D02*
X475788D01*
Y331693D02*
Y337598D01*
X465551Y331693D02*
Y337598D01*
X388524Y167913D02*
X408209D01*
X388524D02*
Y181693D01*
X408209D01*
Y167913D02*
Y181693D01*
X346122Y193504D02*
Y207283D01*
X326437D02*
X346122D01*
X326437Y193504D02*
Y207283D01*
Y193504D02*
X346122D01*
X352756Y165945D02*
X381102D01*
X352756Y199409D02*
X381102D01*
X352756Y165945D02*
Y199409D01*
X381102Y165945D02*
Y199409D01*
X397244Y224410D02*
X406299D01*
X397244Y219685D02*
X406299D01*
X397244D02*
Y224410D01*
X406299Y219685D02*
Y224410D01*
X428346Y174803D02*
Y179528D01*
X437402Y174803D02*
Y179528D01*
X428346D02*
X437402D01*
X428346Y174803D02*
X437402D01*
X290158Y310827D02*
X294882D01*
X290158Y301772D02*
X294882D01*
Y310827D01*
X290158Y301772D02*
Y310827D01*
X370669Y286811D02*
X402953D01*
X370669D02*
Y307677D01*
X402953D01*
Y286811D02*
Y307677D01*
X426378Y199409D02*
Y213189D01*
Y199409D02*
X446063D01*
Y213189D01*
X426378D02*
X446063D01*
X297835Y234449D02*
X306102D01*
X297835Y221457D02*
X306102D01*
Y234449D01*
X297835Y221457D02*
Y234449D01*
X401181Y252559D02*
X405905D01*
X401181Y243504D02*
X405905D01*
Y252559D01*
X401181Y243504D02*
Y252559D01*
X352165Y287992D02*
X358071D01*
X352165Y277756D02*
X358071D01*
Y287992D01*
X352165Y277756D02*
Y287992D01*
X377559Y261221D02*
X387795D01*
X377559Y255315D02*
X387795D01*
X377559D02*
Y261221D01*
X387795Y255315D02*
Y261221D01*
X430512Y265551D02*
Y274606D01*
X435236Y265551D02*
Y274606D01*
X430512Y265551D02*
X435236D01*
X430512Y274606D02*
X435236D01*
X479134Y247835D02*
X494488D01*
X479134Y256102D02*
X494488D01*
Y247835D02*
Y256102D01*
X479134Y247835D02*
Y256102D01*
X454528Y331693D02*
X464764D01*
X454528Y337598D02*
X464764D01*
Y331693D02*
Y337598D01*
X454528Y331693D02*
Y337598D01*
M02*
