G04*
G04 #@! TF.GenerationSoftware,Altium Limited,Altium Designer,23.8.1 (32)*
G04*
G04 Layer_Physical_Order=1*
G04 Layer_Color=255*
%FSLAX25Y25*%
%MOIN*%
G70*
G04*
G04 #@! TF.SameCoordinates,E8196DF9-6BE1-4897-A204-F033BB6E7C32*
G04*
G04*
G04 #@! TF.FilePolarity,Positive*
G04*
G01*
G75*
%ADD10C,0.00787*%
%ADD15R,0.02913X0.10984*%
%ADD16R,0.01417X0.01260*%
%ADD17R,0.03740X0.03150*%
%ADD18R,0.05512X0.07480*%
%ADD19R,0.07087X0.05512*%
%ADD20R,0.03150X0.05906*%
%ADD21R,0.04724X0.01181*%
%ADD22R,0.01181X0.04724*%
%ADD23R,0.01181X0.04724*%
%ADD24R,0.03347X0.03543*%
%ADD25R,0.03591X0.03772*%
%ADD26R,0.04134X0.03543*%
%ADD27R,0.02953X0.03543*%
%ADD28R,0.03788X0.03681*%
%ADD29R,0.03772X0.03591*%
%ADD30R,0.03681X0.03788*%
%ADD31R,0.03543X0.02953*%
%ADD32R,0.03150X0.03740*%
%ADD33R,0.04724X0.10630*%
%ADD34R,0.04882X0.10748*%
%ADD35R,0.03543X0.05512*%
%ADD36R,0.02953X0.03937*%
G04:AMPARAMS|DCode=37|XSize=35.43mil|YSize=68.9mil|CornerRadius=1.95mil|HoleSize=0mil|Usage=FLASHONLY|Rotation=180.000|XOffset=0mil|YOffset=0mil|HoleType=Round|Shape=RoundedRectangle|*
%AMROUNDEDRECTD37*
21,1,0.03543,0.06500,0,0,180.0*
21,1,0.03154,0.06890,0,0,180.0*
1,1,0.00390,-0.01577,0.03250*
1,1,0.00390,0.01577,0.03250*
1,1,0.00390,0.01577,-0.03250*
1,1,0.00390,-0.01577,-0.03250*
%
%ADD37ROUNDEDRECTD37*%
G04:AMPARAMS|DCode=38|XSize=125.98mil|YSize=68.9mil|CornerRadius=2.07mil|HoleSize=0mil|Usage=FLASHONLY|Rotation=180.000|XOffset=0mil|YOffset=0mil|HoleType=Round|Shape=RoundedRectangle|*
%AMROUNDEDRECTD38*
21,1,0.12598,0.06476,0,0,180.0*
21,1,0.12185,0.06890,0,0,180.0*
1,1,0.00413,-0.06093,0.03238*
1,1,0.00413,0.06093,0.03238*
1,1,0.00413,0.06093,-0.03238*
1,1,0.00413,-0.06093,-0.03238*
%
%ADD38ROUNDEDRECTD38*%
%ADD39R,0.01772X0.05433*%
%ADD40R,0.05610X0.06102*%
%ADD41R,0.03937X0.07480*%
%ADD42R,0.07087X0.07480*%
%ADD43R,0.06496X0.05118*%
%ADD44R,0.03543X0.03347*%
%ADD45R,0.01480X0.05764*%
G04:AMPARAMS|DCode=46|XSize=57.64mil|YSize=14.8mil|CornerRadius=7.4mil|HoleSize=0mil|Usage=FLASHONLY|Rotation=270.000|XOffset=0mil|YOffset=0mil|HoleType=Round|Shape=RoundedRectangle|*
%AMROUNDEDRECTD46*
21,1,0.05764,0.00000,0,0,270.0*
21,1,0.04284,0.01480,0,0,270.0*
1,1,0.01480,0.00000,-0.02142*
1,1,0.01480,0.00000,0.02142*
1,1,0.01480,0.00000,0.02142*
1,1,0.01480,0.00000,-0.02142*
%
%ADD46ROUNDEDRECTD46*%
%ADD47R,0.05118X0.07480*%
%ADD48R,0.02559X0.02756*%
%ADD49R,0.04921X0.04331*%
%ADD50R,0.04724X0.02362*%
%ADD51R,0.02756X0.02559*%
%ADD52R,0.05512X0.03543*%
%ADD53R,0.03937X0.02953*%
%ADD77C,0.03937*%
%ADD78C,0.01968*%
%ADD79C,0.01181*%
%ADD80C,0.05693*%
%ADD81C,0.11870*%
%ADD82C,0.05984*%
%ADD83C,0.05906*%
%ADD84R,0.05906X0.05906*%
%ADD85C,0.05000*%
%ADD86C,0.02400*%
%ADD87C,0.02500*%
G36*
X362992Y241732D02*
X347244D01*
Y248031D01*
X362992D01*
Y241732D01*
D02*
G37*
G36*
X332283Y240158D02*
X332632Y240158D01*
X333317Y240021D01*
X333962Y239754D01*
X334542Y239366D01*
X335036Y238873D01*
X335423Y238293D01*
X335691Y237648D01*
X335804Y237079D01*
X335827Y236616D01*
Y236614D01*
X335827Y236614D01*
X335827Y236614D01*
Y192126D01*
X339370Y188583D01*
Y181890D01*
X346850Y174409D01*
X360630D01*
X360630Y160630D01*
X360630Y160238D01*
X360330Y159515D01*
X359776Y158961D01*
X359122Y158690D01*
X358661Y158661D01*
X358661Y158661D01*
Y158661D01*
X357806D01*
X357261Y158661D01*
X356190Y158874D01*
X355182Y159292D01*
X354275Y159898D01*
X353889Y160284D01*
X353889Y160284D01*
X325340Y188833D01*
X324763Y189410D01*
X323727Y190673D01*
X322820Y192030D01*
X322050Y193471D01*
X321425Y194979D01*
X320951Y196542D01*
X320633Y198143D01*
X320472Y199768D01*
Y200585D01*
X320472Y235039D01*
X320472Y235543D01*
X320669Y236532D01*
X321055Y237464D01*
X321615Y238302D01*
X322328Y239015D01*
X323166Y239575D01*
X324098Y239961D01*
X325086Y240157D01*
X325590Y240157D01*
X325591Y240158D01*
X332283Y240158D01*
D02*
G37*
G36*
X414961Y225197D02*
X415196Y225197D01*
X415630Y225017D01*
X415962Y224685D01*
X416048Y224477D01*
X416142Y224016D01*
X416142Y224016D01*
X416142Y224016D01*
X416142Y219070D01*
X415434Y219061D01*
X414030Y218889D01*
X412666Y218514D01*
X411371Y217945D01*
X410173Y217193D01*
X409098Y216274D01*
X408167Y215209D01*
X407402Y214019D01*
X407087Y213386D01*
X407087D01*
X407087Y213386D01*
X407087Y213386D01*
X407087Y212916D01*
X407087Y212895D01*
Y212346D01*
Y183858D01*
Y150787D01*
X402362Y146063D01*
X382283D01*
X373622Y154724D01*
Y174803D01*
X378346D01*
X378346Y158002D01*
X386225Y150787D01*
X399606D01*
X402756Y153937D01*
Y166929D01*
X401181Y168504D01*
Y184646D01*
X401968Y185433D01*
Y200394D01*
X401575Y200787D01*
X401575Y215748D01*
X402362Y216535D01*
X402362Y224016D01*
X402362Y224251D01*
X402542Y224685D01*
X402874Y225017D01*
X403308Y225197D01*
X403543D01*
X403543Y225197D01*
X414961Y225197D01*
D02*
G37*
G36*
X344488Y250000D02*
X344645Y250000D01*
X344934Y249880D01*
X345156Y249659D01*
X345276Y249369D01*
X345275Y249213D01*
X345275D01*
X345276Y242126D01*
X345289Y241856D01*
X345394Y241326D01*
X345601Y240827D01*
X345901Y240378D01*
X346283Y239996D01*
X346732Y239696D01*
X347231Y239489D01*
X347761Y239383D01*
X348031Y239370D01*
X351575Y239370D01*
X352045Y239370D01*
X352913Y239010D01*
X353577Y238346D01*
X353937Y237478D01*
X353937Y237008D01*
X353937Y237008D01*
X353937Y237008D01*
X353937Y235187D01*
X353937Y194882D01*
X353950Y194612D01*
X354056Y194082D01*
X354262Y193583D01*
X354562Y193133D01*
X354944Y192752D01*
X355394Y192451D01*
X355893Y192245D01*
X356423Y192139D01*
X356693Y192126D01*
X360236D01*
Y199213D01*
X373622D01*
Y194095D01*
Y180709D01*
X368898Y176207D01*
Y166535D01*
X364961D01*
Y176450D01*
X360236Y180709D01*
Y183465D01*
X340158D01*
Y193307D01*
X338189Y195276D01*
Y221260D01*
X338583Y221654D01*
Y249369D01*
X338703Y249659D01*
X338924Y249880D01*
X339213Y250000D01*
X339370D01*
X339370Y250000D01*
X344488Y250000D01*
D02*
G37*
G36*
X423228Y224409D02*
X424236Y224410D01*
X426214Y224016D01*
X428077Y223244D01*
X429753Y222124D01*
X431179Y220698D01*
X432300Y219022D01*
X433071Y217159D01*
X433464Y215181D01*
X433464Y214173D01*
X433464Y214173D01*
X433465Y214173D01*
Y196063D01*
X433071Y195669D01*
Y179921D01*
X432283Y179134D01*
Y164567D01*
Y159055D01*
X430315D01*
Y168110D01*
X427559Y170866D01*
X427559Y183858D01*
X427559Y214173D01*
X427486Y214696D01*
X427206Y215713D01*
X426756Y216666D01*
X426149Y217529D01*
X425403Y218275D01*
X424540Y218882D01*
X423587Y219332D01*
X422570Y219612D01*
X422047Y219685D01*
X422047Y219685D01*
X422047Y219685D01*
X418504Y219685D01*
Y224410D01*
X423228Y224409D01*
D02*
G37*
G36*
X439370Y212992D02*
X447244Y212992D01*
X447244Y212992D01*
X447244Y212992D01*
X447245D01*
X447707Y212954D01*
X448048Y212886D01*
X448550Y212678D01*
X449001Y212377D01*
X449385Y211993D01*
X449686Y211542D01*
X449894Y211040D01*
X450000Y210508D01*
X450000Y210236D01*
X450000Y187008D01*
X450000Y183071D01*
X450000Y183071D01*
X449689Y182035D01*
X448853Y180039D01*
X447812Y178142D01*
X446578Y176365D01*
X445871Y175546D01*
X445871Y175546D01*
X445209Y174528D01*
X444084Y172377D01*
X443237Y170102D01*
X442684Y167739D01*
X442520Y166535D01*
X442520Y159055D01*
X440551D01*
Y164471D01*
X440551Y164471D01*
X440551Y164471D01*
X440513Y165239D01*
X440214Y166746D01*
X439626Y168165D01*
X438773Y169441D01*
X438257Y170011D01*
X433465Y174803D01*
Y179134D01*
X436057Y181727D01*
X436057Y181727D01*
X436057Y181727D01*
X436271Y181963D01*
X436352Y182083D01*
X436625Y182492D01*
X436868Y183079D01*
X436992Y183703D01*
X437008Y184021D01*
X437008Y210159D01*
X437008Y210630D01*
X437008Y210630D01*
X437008Y210630D01*
X437008Y210630D01*
X437008Y211100D01*
X437367Y211968D01*
X438032Y212633D01*
X438900Y212992D01*
X439370Y212992D01*
D02*
G37*
G36*
X400000Y224803D02*
X400235Y224803D01*
X400669Y224623D01*
X401001Y224291D01*
X401089Y224079D01*
X401181Y223622D01*
Y223622D01*
X401181Y223622D01*
X401181Y223622D01*
X401181Y220636D01*
X401181Y220409D01*
X401093Y219966D01*
X400920Y219549D01*
X400801Y219371D01*
X400509Y219013D01*
X400509Y219013D01*
X400509Y219013D01*
X397801Y216305D01*
X397587Y216069D01*
X397234Y215540D01*
X396990Y214952D01*
X396866Y214328D01*
X396850Y214010D01*
Y180709D01*
X396063Y179921D01*
Y169291D01*
X401575Y163779D01*
Y157874D01*
X392913D01*
X382677Y168110D01*
Y183465D01*
X385039Y185827D01*
Y218898D01*
Y219479D01*
X385266Y220620D01*
X385712Y221695D01*
X386358Y222662D01*
X387180Y223485D01*
X388147Y224131D01*
X389222Y224576D01*
X390363Y224803D01*
X390945D01*
X390945Y224803D01*
X400000Y224803D01*
D02*
G37*
%LPC*%
G36*
X357874Y171285D02*
X357525Y171216D01*
X357230Y171018D01*
X356049Y169837D01*
X355851Y169542D01*
X355782Y169193D01*
X355851Y168844D01*
X356049Y168549D01*
X356344Y168351D01*
X356693Y168282D01*
X357042Y168351D01*
X357337Y168549D01*
X358518Y169730D01*
X358716Y170025D01*
X358785Y170374D01*
X358716Y170723D01*
X358518Y171018D01*
X358223Y171216D01*
X357874Y171285D01*
D02*
G37*
G36*
X404331Y191856D02*
X403982Y191787D01*
X403686Y191589D01*
X403489Y191294D01*
X403419Y190945D01*
X403489Y190596D01*
X403686Y190301D01*
X404080Y189907D01*
X404376Y189709D01*
X404724Y189640D01*
X405073Y189709D01*
X405369Y189907D01*
X405566Y190202D01*
X405636Y190551D01*
X405566Y190900D01*
X405369Y191195D01*
X404975Y191589D01*
X404679Y191787D01*
X404331Y191856D01*
D02*
G37*
G36*
X404724Y176226D02*
X404376Y176157D01*
X404080Y175959D01*
X403568Y175447D01*
X403371Y175152D01*
X403301Y174803D01*
X403371Y174454D01*
X403568Y174159D01*
X403686Y174041D01*
X403982Y173843D01*
X404331Y173774D01*
X404679Y173843D01*
X404975Y174041D01*
X405173Y174336D01*
X405207Y174509D01*
X405369Y174671D01*
X405566Y174966D01*
X405636Y175315D01*
X405566Y175664D01*
X405369Y175959D01*
X405073Y176157D01*
X404724Y176226D01*
D02*
G37*
%LPD*%
D10*
X287244Y233622D02*
X289764Y231102D01*
X292126D01*
Y243189D02*
X292244Y243307D01*
X282244Y259331D02*
Y277520D01*
X287244Y233622D02*
Y243307D01*
X287402Y267893D02*
X288976Y269467D01*
X287402Y259488D02*
Y267893D01*
X288976Y269467D02*
Y269685D01*
X292520Y259606D02*
Y280709D01*
X292244Y259331D02*
X292520Y259606D01*
X287244Y259331D02*
X287402Y259488D01*
X272047Y318898D02*
Y324803D01*
X277165Y329921D01*
X302362D01*
X272047Y318898D02*
X274016Y316929D01*
Y309213D02*
Y316929D01*
X308898Y337402D02*
X313779D01*
X302362Y329921D02*
X306693Y334252D01*
Y337402D01*
Y344685D01*
X306772Y349685D02*
Y363465D01*
X306693Y349606D02*
X306772Y349685D01*
X412705Y288476D02*
X417323D01*
X399803D02*
X405512D01*
X411524Y289657D02*
X412705Y288476D01*
X406693Y289657D02*
X411524D01*
X405512Y288476D02*
X406693Y289657D01*
X355512Y285827D02*
X409055D01*
X309449Y285433D02*
X355118D01*
X355118Y285433D02*
X355512Y285827D01*
X432677Y272835D02*
Y277953D01*
X357087Y319291D02*
Y325590D01*
X301969Y218110D02*
Y225197D01*
X347342Y366831D02*
X356791D01*
X356890Y366732D01*
X347244Y366929D02*
X347342Y366831D01*
X317717Y300394D02*
X327559D01*
X399213Y222047D02*
X399213Y222047D01*
X509449Y290158D02*
Y294488D01*
X509449Y294488D02*
X509449Y294488D01*
X501575Y297244D02*
X504331Y294488D01*
X509449D01*
X498031Y297244D02*
X501575D01*
X475219Y475317D02*
Y479156D01*
X478839Y479724D02*
X480807Y481693D01*
X475787Y479724D02*
X478839D01*
X475098Y475197D02*
X475219Y475317D01*
Y479156D02*
X475787Y479724D01*
X481244Y481693D02*
X483434Y483883D01*
X480807Y481693D02*
X481244D01*
X483434Y483883D02*
X485163D01*
X486909Y485630D01*
X510039Y319291D02*
X520472Y308858D01*
Y284646D02*
Y308858D01*
X517323Y281496D02*
X520472Y284646D01*
X417323Y288476D02*
X417323Y288476D01*
Y279921D02*
Y288476D01*
X397638Y290642D02*
X399803Y288476D01*
X397638Y290642D02*
Y290945D01*
X446063Y317717D02*
X450394D01*
X462598Y311811D02*
X465354Y314567D01*
X462598Y307087D02*
Y311811D01*
X465354Y314567D02*
Y317717D01*
X468504Y311811D02*
X471260Y314567D01*
Y320571D01*
X468504Y323327D02*
X471260Y320571D01*
X468504Y307087D02*
X468504Y307087D01*
Y311811D01*
X424016Y295276D02*
X452756D01*
X417323Y301969D02*
X424016Y295276D01*
X436614Y297244D02*
X452756D01*
X423917Y309941D02*
X436614Y297244D01*
X423917Y309941D02*
Y341437D01*
X417323Y301969D02*
Y305799D01*
X345472Y300197D02*
Y325787D01*
X374606Y341142D02*
Y366732D01*
X376890Y384409D02*
X386890D01*
X494882Y244980D02*
X495385D01*
X498032Y247627D01*
Y251969D01*
X462451Y250148D02*
X462598Y250000D01*
Y245276D02*
Y250000D01*
X483760Y473032D02*
X484941Y471850D01*
X485138D02*
X487992Y468996D01*
X484941Y471850D02*
X485138D01*
X483760Y473032D02*
Y474803D01*
X435169Y489536D02*
X441074D01*
X444390Y486221D01*
X435138Y489567D02*
X435169Y489536D01*
X468504Y323327D02*
Y334055D01*
X462205Y329626D02*
Y334646D01*
Y329626D02*
X468504Y323327D01*
X420472Y344882D02*
X423917Y341437D01*
X457087Y334646D02*
Y340158D01*
Y334646D02*
X457087Y334646D01*
X478346Y314961D02*
Y363189D01*
Y314961D02*
X480315Y312992D01*
X475984Y365551D02*
X478346Y363189D01*
X296772Y356221D02*
Y363465D01*
X276772Y336221D02*
X296772Y356221D01*
X276689Y322752D02*
X285910D01*
X276673Y322736D02*
X276689Y322752D01*
X276673Y309312D02*
Y322736D01*
X276575Y309213D02*
X276673Y309312D01*
X285827Y288976D02*
Y317323D01*
X281102Y318898D02*
X284252D01*
X279134Y309213D02*
Y316929D01*
X281102Y318898D01*
X284252D02*
X285827Y317323D01*
X274410Y277559D02*
X285827Y288976D01*
X307244Y262323D02*
X308307Y263386D01*
X307244Y259331D02*
Y262323D01*
X308307Y263386D02*
X320866D01*
X394094Y344882D02*
X420472D01*
X385638Y353339D02*
Y360425D01*
Y353339D02*
X394094Y344882D01*
X374606Y366732D02*
X385055D01*
X386221Y365567D01*
X356890Y341142D02*
Y366732D01*
X374508Y321949D02*
X374803Y321654D01*
X374606Y331299D02*
Y341142D01*
X374508Y321949D02*
Y331201D01*
X374606Y331299D01*
X357185Y331201D02*
X369783D01*
X357087Y331102D02*
X357185Y331201D01*
X488976Y315189D02*
Y333465D01*
X486221Y312433D02*
X488976Y315189D01*
X493307Y314961D02*
X493307D01*
X490157Y311811D02*
X493307Y314961D01*
X452362Y404823D02*
Y412205D01*
X482677Y328928D02*
X487008Y324598D01*
X482677Y328928D02*
Y345571D01*
X452362Y412205D02*
X452457Y412299D01*
X483760Y474803D02*
X484941Y475984D01*
X479429Y468209D02*
Y474409D01*
X452264Y476292D02*
X453445Y475111D01*
X458169Y421850D02*
Y433858D01*
X476552Y433737D02*
X476673Y433858D01*
X476552Y422835D02*
Y433737D01*
X470768Y474409D02*
X470768Y474409D01*
X447736Y474311D02*
X453346D01*
X447736Y473917D02*
Y474311D01*
Y473917D02*
X448130Y473524D01*
X447638Y468701D02*
X457019D01*
X470768Y468286D02*
Y474409D01*
X453445Y474409D02*
Y475111D01*
X453346Y474311D02*
X453445Y474409D01*
X462106Y467815D02*
Y474409D01*
X457019Y468701D02*
X457776Y469457D01*
Y473622D01*
X458169Y412311D02*
X458181Y412299D01*
X458169Y412311D02*
Y421850D01*
X338681Y299114D02*
X344488Y293307D01*
X327756Y300197D02*
X328839Y299114D01*
X338681D01*
X344488Y290158D02*
Y293307D01*
X459449Y257087D02*
X460622Y258260D01*
Y261803D01*
X460630Y261811D01*
X468504Y257776D02*
X470472Y255807D01*
X468504Y257776D02*
Y261811D01*
X468504Y261811D01*
X447835Y251870D02*
X451476D01*
X443701Y247736D02*
X447835Y251870D01*
X470472Y255807D02*
X477461D01*
X477362Y240748D02*
Y240846D01*
X474409Y237795D02*
X477362Y240748D01*
X465945Y237795D02*
X474409D01*
X464567Y236417D02*
X465945Y237795D01*
X459885Y295276D02*
X498031D01*
X459098Y294488D02*
X459885Y295276D01*
X458661Y294488D02*
X459098D01*
X302244Y278228D02*
X309449Y285433D01*
X302244Y259331D02*
Y278228D01*
X296063Y291339D02*
X305512D01*
X282244Y277520D02*
X296063Y291339D01*
X478346Y301793D02*
Y307087D01*
X476772Y300000D02*
Y300218D01*
X478346Y301793D01*
X478346Y307087D02*
X478346Y307087D01*
X438189Y287008D02*
X440158Y288976D01*
X438189Y287008D02*
Y287008D01*
X444095Y281496D02*
X452756D01*
X452756Y281496D01*
X444095Y281496D02*
X444095Y281496D01*
X462598Y301181D02*
Y307086D01*
X462598Y301181D02*
X462598Y301181D01*
X417323Y270472D02*
Y275197D01*
X387008Y265748D02*
X393701D01*
X490157Y307087D02*
Y311811D01*
X292520Y297244D02*
Y303740D01*
X279134Y294094D02*
X281102Y292126D01*
X279134Y294094D02*
Y302756D01*
X274016Y277559D02*
X274410D01*
X274016Y277559D02*
Y302756D01*
X274016Y277559D02*
X274016Y277559D01*
X285910Y322752D02*
X292520Y316142D01*
Y308858D02*
Y316142D01*
X486221Y307086D02*
Y312433D01*
X307244Y243307D02*
Y247342D01*
X308307Y248406D01*
X312185D01*
X314961Y251181D01*
X444882Y257087D02*
X459449D01*
X301969Y243032D02*
X302244Y243307D01*
X301969Y230709D02*
Y243032D01*
X435827Y291339D02*
X452756D01*
X422835Y269291D02*
Y278346D01*
X435827Y291339D01*
X418216Y293307D02*
X452756D01*
X385622Y366134D02*
X385638Y366150D01*
X330315Y334646D02*
X334252D01*
X327756Y332087D02*
X330315Y334646D01*
X327756Y325787D02*
Y332087D01*
X327559Y300394D02*
X327756Y300197D01*
Y325787D01*
X355118Y285433D02*
Y296063D01*
X350984Y300197D02*
X355118Y296063D01*
X345472Y300197D02*
X350984D01*
X355118Y285433D02*
X355118Y285433D01*
X345276Y325984D02*
X345472Y325787D01*
X345276Y325984D02*
Y331890D01*
X342520Y334646D02*
X345276Y331890D01*
X338976Y334646D02*
X342520D01*
X432983Y277647D02*
X438495D01*
X440551Y272441D02*
Y275591D01*
X438495Y277647D02*
X440551Y275591D01*
X432677Y277953D02*
X432983Y277647D01*
X432874Y267520D02*
X433071Y267323D01*
X432874Y267520D02*
X440354D01*
X440846Y267717D02*
X448524Y275394D01*
X452559D01*
X452756Y275590D01*
X441339Y261811D02*
X449213Y269685D01*
X452756D01*
X452756Y269685D01*
X403543Y265748D02*
X419291D01*
X422835Y269291D01*
X432677Y272835D02*
X432874Y272638D01*
X433071Y255906D02*
Y267323D01*
X418725Y312925D02*
X418815D01*
X413098Y311524D02*
X417323D01*
X417323Y322441D02*
X417323Y322441D01*
Y311524D02*
Y322441D01*
X405118Y303543D02*
X413098Y311524D01*
X397638Y303543D02*
X405118D01*
X450394Y317717D02*
X450394Y317717D01*
X417323Y327165D02*
Y332677D01*
X385236Y258268D02*
X393701D01*
X385236Y258268D02*
X385236Y258268D01*
X440158Y288976D02*
X445669D01*
X447244Y287402D02*
X452756D01*
X445669Y288976D02*
X447244Y287402D01*
X417323Y294201D02*
X418216Y293307D01*
X464567Y211417D02*
Y217323D01*
X366732Y244882D02*
X366732Y244882D01*
X404213Y174803D02*
X404724Y175315D01*
X404213Y174803D02*
X404331Y174685D01*
X516929Y285465D02*
Y294094D01*
X514929Y283465D02*
X516929Y285465D01*
X498032Y281496D02*
X517323D01*
X356693Y169193D02*
X357874Y170374D01*
X464567Y223228D02*
Y228937D01*
X421260Y255618D02*
X432784D01*
X433071Y255906D01*
X274016Y302756D02*
X274016Y302756D01*
X404331Y190945D02*
X404724Y190551D01*
X403543Y250590D02*
Y258268D01*
X498032Y283465D02*
X514929D01*
X484252Y312992D02*
X487008Y315748D01*
X480315Y312008D02*
Y312992D01*
X480315Y312008D02*
X480315Y312008D01*
X480315Y307086D02*
Y312008D01*
X484252Y307086D02*
Y312992D01*
X482283Y307086D02*
Y317622D01*
X487008Y315748D02*
Y324598D01*
D15*
X307244Y259331D02*
D03*
Y243307D02*
D03*
X302244Y259331D02*
D03*
Y243307D02*
D03*
X297244Y259331D02*
D03*
Y243307D02*
D03*
X292244Y259331D02*
D03*
Y243307D02*
D03*
X287244Y259331D02*
D03*
Y243307D02*
D03*
X282244Y259331D02*
D03*
Y243307D02*
D03*
X277244Y259331D02*
D03*
Y243307D02*
D03*
D16*
X308898Y337402D02*
D03*
X306693D02*
D03*
D17*
Y349606D02*
D03*
Y344685D02*
D03*
X355118Y285433D02*
D03*
Y280315D02*
D03*
D18*
X486909Y485630D02*
D03*
X435138Y489567D02*
D03*
D19*
X458169Y433858D02*
D03*
X476673D02*
D03*
D20*
X483760Y474409D02*
D03*
X479429D02*
D03*
X475098Y475197D02*
D03*
X470768Y474409D02*
D03*
X466437Y475197D02*
D03*
X462106Y474409D02*
D03*
X457776Y473622D02*
D03*
X453445Y474409D02*
D03*
D21*
X452756Y299213D02*
D03*
Y297244D02*
D03*
Y295276D02*
D03*
Y293307D02*
D03*
Y291339D02*
D03*
Y289370D02*
D03*
Y287402D02*
D03*
Y285433D02*
D03*
Y283465D02*
D03*
Y281496D02*
D03*
Y279528D02*
D03*
Y277559D02*
D03*
Y275591D02*
D03*
Y273622D02*
D03*
Y271654D02*
D03*
Y269685D02*
D03*
X498031D02*
D03*
Y271654D02*
D03*
Y273622D02*
D03*
Y275591D02*
D03*
Y277559D02*
D03*
Y279528D02*
D03*
Y281496D02*
D03*
Y283465D02*
D03*
Y285433D02*
D03*
Y287402D02*
D03*
Y289370D02*
D03*
Y291339D02*
D03*
Y293307D02*
D03*
Y295276D02*
D03*
Y297244D02*
D03*
Y299213D02*
D03*
D22*
X460630Y261811D02*
D03*
X462598D02*
D03*
X464567D02*
D03*
X466535D02*
D03*
X468504D02*
D03*
X470472D02*
D03*
X472441D02*
D03*
X474409D02*
D03*
X476378D02*
D03*
X478346D02*
D03*
X480315D02*
D03*
X482283D02*
D03*
X484252D02*
D03*
X486220D02*
D03*
X488189D02*
D03*
X490157D02*
D03*
Y307087D02*
D03*
X488189D02*
D03*
X486220D02*
D03*
X484252D02*
D03*
X482283D02*
D03*
X480315D02*
D03*
X478346D02*
D03*
X476378D02*
D03*
X472441D02*
D03*
X470472D02*
D03*
X468504D02*
D03*
X466535D02*
D03*
X464567D02*
D03*
X462598D02*
D03*
X460630D02*
D03*
D23*
X474409D02*
D03*
D24*
X462451Y250148D02*
D03*
X467569D02*
D03*
X399213Y222047D02*
D03*
X404331D02*
D03*
X430315Y177165D02*
D03*
X435433D02*
D03*
D25*
X448032Y329982D02*
D03*
Y335707D02*
D03*
X421260Y249894D02*
D03*
Y255618D02*
D03*
X417323Y305799D02*
D03*
Y311524D02*
D03*
X385638Y360425D02*
D03*
Y366150D02*
D03*
X417323Y288476D02*
D03*
Y294201D02*
D03*
X439567Y335646D02*
D03*
Y329921D02*
D03*
D26*
X357087Y331102D02*
D03*
Y325590D02*
D03*
X301969Y230709D02*
D03*
Y225197D02*
D03*
D27*
X369783Y331201D02*
D03*
X374508D02*
D03*
X450394Y317717D02*
D03*
X455118D02*
D03*
X337402Y186614D02*
D03*
X342126D02*
D03*
X399606Y161024D02*
D03*
X404331D02*
D03*
X456201Y251870D02*
D03*
X451476D02*
D03*
X502756Y251969D02*
D03*
X498032D02*
D03*
X334252Y334646D02*
D03*
X338976D02*
D03*
X465354Y317717D02*
D03*
X460630D02*
D03*
D28*
X374803Y321654D02*
D03*
Y316020D02*
D03*
D29*
X458181Y412299D02*
D03*
X452457D02*
D03*
X452445Y421850D02*
D03*
X458169D02*
D03*
D30*
X476552Y422835D02*
D03*
X482185D02*
D03*
D31*
X509449Y294488D02*
D03*
Y299213D02*
D03*
X440551Y267717D02*
D03*
Y272441D02*
D03*
X417323Y279921D02*
D03*
Y275197D02*
D03*
X344488Y290158D02*
D03*
Y285433D02*
D03*
X417323Y327165D02*
D03*
Y322441D02*
D03*
D32*
X473228Y334646D02*
D03*
X468110D02*
D03*
X380118Y258268D02*
D03*
X385236D02*
D03*
X462205Y334646D02*
D03*
X457087D02*
D03*
D33*
X404331Y206299D02*
D03*
X394094D02*
D03*
X331890Y215748D02*
D03*
X342126D02*
D03*
X342126Y231102D02*
D03*
X331890D02*
D03*
X440945Y190157D02*
D03*
X430709D02*
D03*
X394488Y190551D02*
D03*
X404724D02*
D03*
D34*
X404213Y174803D02*
D03*
X392520D02*
D03*
X330433Y200394D02*
D03*
X342126D02*
D03*
X442067Y206299D02*
D03*
X430374D02*
D03*
D35*
X349606Y244882D02*
D03*
X342126D02*
D03*
D36*
X366732D02*
D03*
X360827D02*
D03*
D37*
X357874Y170374D02*
D03*
X366929D02*
D03*
X375984D02*
D03*
D38*
X366929Y194980D02*
D03*
D39*
X441437Y161653D02*
D03*
X438878D02*
D03*
X436319D02*
D03*
X433760D02*
D03*
X431201D02*
D03*
D40*
X446112Y161319D02*
D03*
X426525D02*
D03*
D41*
X442421Y151181D02*
D03*
D42*
X431791D02*
D03*
D43*
X449606D02*
D03*
X423032D02*
D03*
D44*
X292520Y308858D02*
D03*
Y303740D02*
D03*
X403543Y250590D02*
D03*
Y245473D02*
D03*
X432874Y267520D02*
D03*
Y272638D02*
D03*
D45*
X279134Y309213D02*
D03*
D46*
X276575D02*
D03*
X274016D02*
D03*
Y302756D02*
D03*
X279134D02*
D03*
D47*
X397638Y290945D02*
D03*
Y303543D02*
D03*
X375984Y290945D02*
D03*
Y303543D02*
D03*
D48*
X414764Y222047D02*
D03*
X420079D02*
D03*
D49*
X490158Y251969D02*
D03*
X483465D02*
D03*
D50*
X403543Y265748D02*
D03*
Y258268D02*
D03*
X393701D02*
D03*
Y262008D02*
D03*
Y265748D02*
D03*
D51*
X433071Y255906D02*
D03*
Y250591D02*
D03*
D52*
X464567Y228937D02*
D03*
Y236417D02*
D03*
D53*
Y223228D02*
D03*
Y217323D02*
D03*
D77*
X444685Y421850D02*
X452445D01*
X371654Y258268D02*
X380118D01*
X403937Y259055D02*
X408768D01*
X411130Y261417D02*
X411417D01*
X403543Y258268D02*
Y258661D01*
X403937Y259055D01*
X408768D02*
X411130Y261417D01*
X355118Y273622D02*
Y280315D01*
X374803Y316020D02*
X385705D01*
X385827Y316142D01*
X482185Y416240D02*
X482283Y416142D01*
X482185Y416240D02*
Y422835D01*
X509449Y299213D02*
Y305118D01*
X509449Y305118D01*
X439567Y335646D02*
Y341732D01*
X455118Y317717D02*
Y324803D01*
Y317717D02*
X460630D01*
X502756Y245571D02*
Y251969D01*
Y245571D02*
X502854Y245472D01*
X467569Y250148D02*
X473081D01*
X473228Y250000D01*
X466388Y475246D02*
X466437Y475197D01*
X466388Y475246D02*
Y483120D01*
X466339Y483169D02*
X466388Y483120D01*
X433071Y244980D02*
Y250591D01*
X456201Y245374D02*
X456299Y245276D01*
X456201Y245374D02*
Y251870D01*
X421957Y250591D02*
X433071D01*
X421260Y249894D02*
X421957Y250591D01*
X473228Y334646D02*
Y340945D01*
D78*
X399213Y233071D02*
X403543Y237402D01*
X399213Y222047D02*
Y233071D01*
X403543Y245473D02*
X403543Y245473D01*
X403543Y237402D02*
Y245473D01*
X282264Y232697D02*
Y243287D01*
Y232697D02*
X282283Y232677D01*
X282244Y243307D02*
X282264Y243287D01*
X366732Y244882D02*
X374016D01*
X366732Y244882D02*
X366732Y244882D01*
D79*
X467224Y250148D02*
Y254183D01*
X498031Y299213D02*
X509449D01*
X429134Y326378D02*
X432677Y329921D01*
X429134Y320866D02*
Y326378D01*
Y307874D02*
Y320866D01*
X433465Y325197D01*
X429134Y307874D02*
X437795Y299213D01*
X460630Y307087D02*
Y308858D01*
X460630Y308858D02*
Y317717D01*
X460630Y308858D02*
X460630Y308858D01*
X433465Y325197D02*
X446850D01*
X448032Y326378D01*
Y329982D01*
X437795Y299213D02*
X452756D01*
X432677Y329921D02*
X439567D01*
X464567Y256841D02*
Y261811D01*
Y256841D02*
X467224Y254183D01*
X490158Y251969D02*
Y255413D01*
X488189Y257382D02*
X490158Y255413D01*
X490157Y258566D02*
X490849Y257874D01*
X500000D02*
X502756Y255118D01*
X490158Y251969D02*
X498032D01*
X490157Y258566D02*
Y261811D01*
X490849Y257874D02*
X500000D01*
X448130Y335707D02*
Y343799D01*
X422933Y368996D02*
X448130Y343799D01*
X386890Y375512D02*
X393406Y368996D01*
X422933D01*
X386890Y375512D02*
Y384409D01*
X502756Y251969D02*
Y255118D01*
X488189Y257382D02*
Y261811D01*
X483760Y255411D02*
X486220Y257871D01*
X483760Y252264D02*
Y255411D01*
X433760Y161653D02*
X436319D01*
X462451Y250148D02*
X462599Y250295D01*
X458661Y277559D02*
X458661Y277559D01*
X452756Y277559D02*
X458661D01*
X462599Y250295D02*
Y261811D01*
X486220Y257871D02*
Y261811D01*
X483465Y251969D02*
X483760Y252264D01*
D80*
X296772Y363465D02*
D03*
X306772D02*
D03*
D81*
X326772Y383465D02*
D03*
X286772D02*
D03*
D82*
X376890Y384409D02*
D03*
X381890Y490394D02*
D03*
X386890Y384409D02*
D03*
D83*
X327756Y325787D02*
D03*
X345472D02*
D03*
Y300197D02*
D03*
X356890Y366732D02*
D03*
Y341142D02*
D03*
X374606D02*
D03*
D84*
X327756Y300197D02*
D03*
X374606Y366732D02*
D03*
D85*
X444685Y421850D02*
D03*
X371654Y258268D02*
D03*
X282283Y232677D02*
D03*
X411417Y261417D02*
D03*
X355118Y273622D02*
D03*
X385827Y316142D02*
D03*
X438189Y450394D02*
D03*
X490551Y450350D02*
D03*
X481102D02*
D03*
X472441Y450394D02*
D03*
X447638D02*
D03*
X456693D02*
D03*
X482283Y416142D02*
D03*
X509449Y305118D02*
D03*
X349213Y200394D02*
D03*
Y216142D02*
D03*
X348819Y232283D02*
D03*
X439567Y341732D02*
D03*
X455118Y324803D02*
D03*
X494882Y244980D02*
D03*
X502854Y245472D02*
D03*
X473228Y250000D02*
D03*
X466339Y483169D02*
D03*
X433071Y244980D02*
D03*
X456299Y245276D02*
D03*
X473228Y340945D02*
D03*
D86*
X292126Y231102D02*
D03*
X288976Y269685D02*
D03*
X313779Y337402D02*
D03*
X409055Y285827D02*
D03*
X432677Y277953D02*
D03*
X357087Y319291D02*
D03*
X301969Y218110D02*
D03*
X347244Y366929D02*
D03*
X317717Y300394D02*
D03*
X481102Y491339D02*
D03*
X509449Y290158D02*
D03*
X480807Y481693D02*
D03*
X440945Y177165D02*
D03*
X446063Y190551D02*
D03*
X447638Y205512D02*
D03*
X446063Y317717D02*
D03*
X462598Y245276D02*
D03*
X487992Y468996D02*
D03*
X444390Y486221D02*
D03*
X457087Y340158D02*
D03*
X276772Y336221D02*
D03*
X276673Y322736D02*
D03*
X320866Y263386D02*
D03*
X510039Y319291D02*
D03*
X488976Y333465D02*
D03*
X493307Y314961D02*
D03*
X452362Y404823D02*
D03*
X475984Y365551D02*
D03*
X482677Y345571D02*
D03*
X447736Y474311D02*
D03*
X447638Y468701D02*
D03*
X462106Y467815D02*
D03*
X479429Y468209D02*
D03*
X470768Y468286D02*
D03*
X443701Y247736D02*
D03*
X477362Y240846D02*
D03*
X477461Y255807D02*
D03*
X458661Y294488D02*
D03*
X305512Y291339D02*
D03*
X476772Y300000D02*
D03*
X438189Y287008D02*
D03*
X462598Y301181D02*
D03*
X292520Y280709D02*
D03*
X417323Y270472D02*
D03*
X387008Y265748D02*
D03*
X292520Y297244D02*
D03*
X274016Y277559D02*
D03*
X314961Y251181D02*
D03*
X444882Y257087D02*
D03*
X441339Y261811D02*
D03*
X417323Y332677D02*
D03*
X458661Y277559D02*
D03*
X464567Y211417D02*
D03*
X394094Y161024D02*
D03*
X385827Y174803D02*
D03*
X387795Y206299D02*
D03*
Y190157D02*
D03*
X516929Y294094D02*
D03*
X281102Y292126D02*
D03*
X482283Y317622D02*
D03*
D87*
X374016Y244882D02*
D03*
X444095Y281496D02*
D03*
X325590Y230709D02*
D03*
X325591Y215748D02*
D03*
X323622Y200787D02*
D03*
X331496Y186614D02*
D03*
X357874Y162992D02*
D03*
M02*
