G04*
G04 #@! TF.GenerationSoftware,Altium Limited,Altium Designer,23.8.1 (32)*
G04*
G04 Layer_Color=2752767*
%FSLAX25Y25*%
%MOIN*%
G70*
G04*
G04 #@! TF.SameCoordinates,E8196DF9-6BE1-4897-A204-F033BB6E7C32*
G04*
G04*
G04 #@! TF.FilePolarity,Positive*
G04*
G01*
G75*
%ADD97C,0.00500*%
%ADD99C,0.00667*%
D97*
X511779Y148000D02*
X512780D01*
X513779Y149000D01*
X514780Y148000D01*
X515779D01*
Y149000D01*
X514780Y150000D01*
X515779Y151000D01*
Y152000D01*
X514780D01*
X513779Y151000D01*
X512780Y152000D01*
X511779D01*
Y151000D01*
X512780Y150000D01*
X511779Y149000D01*
Y148000D01*
X257842D02*
X258842D01*
X259842Y149000D01*
X260842Y148000D01*
X261842D01*
Y149000D01*
X260842Y150000D01*
X261842Y151000D01*
Y152000D01*
X260842D01*
X259842Y151000D01*
X258842Y152000D01*
X257842D01*
Y151000D01*
X258842Y150000D01*
X257842Y149000D01*
Y148000D01*
Y482646D02*
X258842D01*
X259842Y483646D01*
X260842Y482646D01*
X261842D01*
Y483646D01*
X260842Y484646D01*
X261842Y485646D01*
Y486646D01*
X260842D01*
X259842Y485646D01*
X258842Y486646D01*
X257842D01*
Y485646D01*
X258842Y484646D01*
X257842Y483646D01*
Y482646D01*
X511779D02*
X512780D01*
X513779Y483646D01*
X514780Y482646D01*
X515779D01*
Y483646D01*
X514780Y484646D01*
X515779Y485646D01*
Y486646D01*
X514780D01*
X513779Y485646D01*
X512780Y486646D01*
X511779D01*
Y485646D01*
X512780Y484646D01*
X511779Y483646D01*
Y482646D01*
X296772Y361465D02*
X297772Y362465D01*
X298772D01*
X297772Y363465D01*
X298772Y364465D01*
X297772D01*
X296772Y365465D01*
X295772Y364465D01*
X294772D01*
X295772Y363465D01*
X294772Y362465D01*
X295772D01*
X296772Y361465D01*
X306772D02*
X307772Y362465D01*
X308772D01*
X307772Y363465D01*
X308772Y364465D01*
X307772D01*
X306772Y365465D01*
X305772Y364465D01*
X304772D01*
X305772Y363465D01*
X304772Y362465D01*
X305772D01*
X306772Y361465D01*
X326772Y381465D02*
X324772Y385465D01*
X328772D01*
X326772Y381465D01*
X286772D02*
X284772Y385465D01*
X288772D01*
X286772Y381465D01*
X325756Y323787D02*
Y327787D01*
X329756D01*
Y323787D01*
X325756D01*
X343472D02*
Y327787D01*
X347472D01*
Y323787D01*
X343472D01*
Y298197D02*
Y302197D01*
X347472D01*
Y298197D01*
X343472D01*
X325756D02*
Y302197D01*
X329756D01*
Y298197D01*
X325756D01*
X372606Y364732D02*
Y368732D01*
X376606D01*
Y364732D01*
X372606D01*
X354890D02*
Y368732D01*
X358890D01*
Y364732D01*
X354890D01*
Y339142D02*
Y343142D01*
X358890D01*
Y339142D01*
X354890D01*
X372606D02*
Y343142D01*
X376606D01*
Y339142D01*
X372606D01*
X442685Y419850D02*
X443685Y421850D01*
X442685Y423850D01*
X444685Y422850D01*
X446685Y423850D01*
X445685Y421850D01*
X446685Y419850D01*
X444685Y420850D01*
X442685Y419850D01*
X369654Y256268D02*
X370654Y258268D01*
X369654Y260268D01*
X371654Y259268D01*
X373654Y260268D01*
X372654Y258268D01*
X373654Y256268D01*
X371654Y257268D01*
X369654Y256268D01*
X280283Y230677D02*
X281283Y232677D01*
X280283Y234677D01*
X282283Y233677D01*
X284283Y234677D01*
X283283Y232677D01*
X284283Y230677D01*
X282283Y231677D01*
X280283Y230677D01*
X409417Y259417D02*
X410417Y261417D01*
X409417Y263417D01*
X411417Y262417D01*
X413417Y263417D01*
X412417Y261417D01*
X413417Y259417D01*
X411417Y260417D01*
X409417Y259417D01*
X291126Y230102D02*
Y229102D01*
X293126D01*
Y230102D01*
X294126D01*
Y232102D01*
X293126D01*
Y233102D01*
X291126D01*
Y232102D01*
X290126D01*
Y230102D01*
X291126D01*
X287976Y268685D02*
Y267685D01*
X289976D01*
Y268685D01*
X290976D01*
Y270685D01*
X289976D01*
Y271685D01*
X287976D01*
Y270685D01*
X286976D01*
Y268685D01*
X287976D01*
X312779Y336402D02*
Y335402D01*
X314779D01*
Y336402D01*
X315779D01*
Y338402D01*
X314779D01*
Y339402D01*
X312779D01*
Y338402D01*
X311779D01*
Y336402D01*
X312779D01*
X408055Y284827D02*
Y283827D01*
X410055D01*
Y284827D01*
X411055D01*
Y286827D01*
X410055D01*
Y287827D01*
X408055D01*
Y286827D01*
X407055D01*
Y284827D01*
X408055D01*
X431677Y276953D02*
Y275953D01*
X433677D01*
Y276953D01*
X434677D01*
Y278953D01*
X433677D01*
Y279953D01*
X431677D01*
Y278953D01*
X430677D01*
Y276953D01*
X431677D01*
X356087Y318291D02*
Y317291D01*
X358087D01*
Y318291D01*
X359087D01*
Y320291D01*
X358087D01*
Y321291D01*
X356087D01*
Y320291D01*
X355087D01*
Y318291D01*
X356087D01*
X353118Y271622D02*
X354118Y273622D01*
X353118Y275622D01*
X355118Y274622D01*
X357118Y275622D01*
X356118Y273622D01*
X357118Y271622D01*
X355118Y272622D01*
X353118Y271622D01*
X300969Y217110D02*
Y216110D01*
X302969D01*
Y217110D01*
X303969D01*
Y219110D01*
X302969D01*
Y220110D01*
X300969D01*
Y219110D01*
X299969D01*
Y217110D01*
X300969D01*
X346244Y365929D02*
Y364929D01*
X348244D01*
Y365929D01*
X349244D01*
Y367929D01*
X348244D01*
Y368929D01*
X346244D01*
Y367929D01*
X345244D01*
Y365929D01*
X346244D01*
X383827Y314142D02*
X384827Y316142D01*
X383827Y318142D01*
X385827Y317142D01*
X387827Y318142D01*
X386827Y316142D01*
X387827Y314142D01*
X385827Y315142D01*
X383827Y314142D01*
X316717Y299394D02*
Y298394D01*
X318717D01*
Y299394D01*
X319717D01*
Y301394D01*
X318717D01*
Y302394D01*
X316717D01*
Y301394D01*
X315717D01*
Y299394D01*
X316717D01*
X480102Y490339D02*
Y489339D01*
X482102D01*
Y490339D01*
X483102D01*
Y492339D01*
X482102D01*
Y493339D01*
X480102D01*
Y492339D01*
X479102D01*
Y490339D01*
X480102D01*
X436189Y448394D02*
X437189Y450394D01*
X436189Y452394D01*
X438189Y451394D01*
X440189Y452394D01*
X439189Y450394D01*
X440189Y448394D01*
X438189Y449394D01*
X436189Y448394D01*
X488551Y448350D02*
X489551Y450350D01*
X488551Y452350D01*
X490551Y451350D01*
X492551Y452350D01*
X491551Y450350D01*
X492551Y448350D01*
X490551Y449350D01*
X488551Y448350D01*
X479102D02*
X480102Y450350D01*
X479102Y452350D01*
X481102Y451350D01*
X483102Y452350D01*
X482102Y450350D01*
X483102Y448350D01*
X481102Y449350D01*
X479102Y448350D01*
X470441Y448394D02*
X471441Y450394D01*
X470441Y452394D01*
X472441Y451394D01*
X474441Y452394D01*
X473441Y450394D01*
X474441Y448394D01*
X472441Y449394D01*
X470441Y448394D01*
X445638D02*
X446638Y450394D01*
X445638Y452394D01*
X447638Y451394D01*
X449638Y452394D01*
X448638Y450394D01*
X449638Y448394D01*
X447638Y449394D01*
X445638Y448394D01*
X454693D02*
X455693Y450394D01*
X454693Y452394D01*
X456693Y451394D01*
X458693Y452394D01*
X457693Y450394D01*
X458693Y448394D01*
X456693Y449394D01*
X454693Y448394D01*
X480283Y414142D02*
X481284Y416142D01*
X480283Y418142D01*
X482283Y417142D01*
X484283Y418142D01*
X483284Y416142D01*
X484283Y414142D01*
X482283Y415142D01*
X480283Y414142D01*
X508449Y289158D02*
Y288158D01*
X510449D01*
Y289158D01*
X511449D01*
Y291158D01*
X510449D01*
Y292158D01*
X508449D01*
Y291158D01*
X507449D01*
Y289158D01*
X508449D01*
X507449Y303118D02*
X508449Y305118D01*
X507449Y307118D01*
X509449Y306118D01*
X511449Y307118D01*
X510449Y305118D01*
X511449Y303118D01*
X509449Y304118D01*
X507449Y303118D01*
X479807Y480693D02*
Y479693D01*
X481807D01*
Y480693D01*
X482807D01*
Y482693D01*
X481807D01*
Y483693D01*
X479807D01*
Y482693D01*
X478807D01*
Y480693D01*
X479807D01*
X347213Y198394D02*
X348213Y200394D01*
X347213Y202394D01*
X349213Y201394D01*
X351213Y202394D01*
X350213Y200394D01*
X351213Y198394D01*
X349213Y199394D01*
X347213Y198394D01*
Y214142D02*
X348213Y216142D01*
X347213Y218142D01*
X349213Y217142D01*
X351213Y218142D01*
X350213Y216142D01*
X351213Y214142D01*
X349213Y215142D01*
X347213Y214142D01*
X346819Y230283D02*
X347819Y232283D01*
X346819Y234283D01*
X348819Y233283D01*
X350819Y234283D01*
X349819Y232283D01*
X350819Y230283D01*
X348819Y231283D01*
X346819Y230283D01*
X439945Y176165D02*
Y175165D01*
X441945D01*
Y176165D01*
X442945D01*
Y178165D01*
X441945D01*
Y179165D01*
X439945D01*
Y178165D01*
X438945D01*
Y176165D01*
X439945D01*
X445063Y189551D02*
Y188551D01*
X447063D01*
Y189551D01*
X448063D01*
Y191551D01*
X447063D01*
Y192551D01*
X445063D01*
Y191551D01*
X444063D01*
Y189551D01*
X445063D01*
X446638Y204512D02*
Y203512D01*
X448638D01*
Y204512D01*
X449638D01*
Y206512D01*
X448638D01*
Y207512D01*
X446638D01*
Y206512D01*
X445638D01*
Y204512D01*
X446638D01*
X437567Y339732D02*
X438567Y341732D01*
X437567Y343732D01*
X439567Y342732D01*
X441567Y343732D01*
X440567Y341732D01*
X441567Y339732D01*
X439567Y340732D01*
X437567Y339732D01*
X453118Y322803D02*
X454118Y324803D01*
X453118Y326803D01*
X455118Y325803D01*
X457118Y326803D01*
X456118Y324803D01*
X457118Y322803D01*
X455118Y323803D01*
X453118Y322803D01*
X445063Y316717D02*
Y315717D01*
X447063D01*
Y316717D01*
X448063D01*
Y318717D01*
X447063D01*
Y319717D01*
X445063D01*
Y318717D01*
X444063D01*
Y316717D01*
X445063D01*
X492882Y242980D02*
X493882Y244980D01*
X492882Y246980D01*
X494882Y245980D01*
X496882Y246980D01*
X495882Y244980D01*
X496882Y242980D01*
X494882Y243980D01*
X492882Y242980D01*
X500854Y243472D02*
X501854Y245472D01*
X500854Y247472D01*
X502854Y246472D01*
X504854Y247472D01*
X503854Y245472D01*
X504854Y243472D01*
X502854Y244472D01*
X500854Y243472D01*
X461598Y244276D02*
Y243276D01*
X463598D01*
Y244276D01*
X464598D01*
Y246276D01*
X463598D01*
Y247276D01*
X461598D01*
Y246276D01*
X460598D01*
Y244276D01*
X461598D01*
X471228Y248000D02*
X472228Y250000D01*
X471228Y252000D01*
X473228Y251000D01*
X475228Y252000D01*
X474228Y250000D01*
X475228Y248000D01*
X473228Y249000D01*
X471228Y248000D01*
X486992Y467996D02*
Y466996D01*
X488992D01*
Y467996D01*
X489992D01*
Y469996D01*
X488992D01*
Y470996D01*
X486992D01*
Y469996D01*
X485992D01*
Y467996D01*
X486992D01*
X443390Y485220D02*
Y484221D01*
X445390D01*
Y485220D01*
X446390D01*
Y487220D01*
X445390D01*
Y488221D01*
X443390D01*
Y487220D01*
X442390D01*
Y485220D01*
X443390D01*
X464339Y481169D02*
X465339Y483169D01*
X464339Y485169D01*
X466339Y484169D01*
X468339Y485169D01*
X467339Y483169D01*
X468339Y481169D01*
X466339Y482169D01*
X464339Y481169D01*
X431071Y242980D02*
X432071Y244980D01*
X431071Y246980D01*
X433071Y245980D01*
X435071Y246980D01*
X434071Y244980D01*
X435071Y242980D01*
X433071Y243980D01*
X431071Y242980D01*
X454299Y243276D02*
X455299Y245276D01*
X454299Y247276D01*
X456299Y246276D01*
X458299Y247276D01*
X457299Y245276D01*
X458299Y243276D01*
X456299Y244276D01*
X454299Y243276D01*
X471228Y338945D02*
X472228Y340945D01*
X471228Y342945D01*
X473228Y341945D01*
X475228Y342945D01*
X474228Y340945D01*
X475228Y338945D01*
X473228Y339945D01*
X471228Y338945D01*
X456087Y339158D02*
Y338158D01*
X458087D01*
Y339158D01*
X459087D01*
Y341158D01*
X458087D01*
Y342158D01*
X456087D01*
Y341158D01*
X455087D01*
Y339158D01*
X456087D01*
X275772Y335221D02*
Y334221D01*
X277772D01*
Y335221D01*
X278772D01*
Y337221D01*
X277772D01*
Y338221D01*
X275772D01*
Y337221D01*
X274772D01*
Y335221D01*
X275772D01*
X275673Y321736D02*
Y320736D01*
X277673D01*
Y321736D01*
X278673D01*
Y323736D01*
X277673D01*
Y324736D01*
X275673D01*
Y323736D01*
X274673D01*
Y321736D01*
X275673D01*
X319866Y262386D02*
Y261386D01*
X321866D01*
Y262386D01*
X322866D01*
Y264386D01*
X321866D01*
Y265386D01*
X319866D01*
Y264386D01*
X318866D01*
Y262386D01*
X319866D01*
X509039Y318291D02*
Y317291D01*
X511039D01*
Y318291D01*
X512039D01*
Y320291D01*
X511039D01*
Y321291D01*
X509039D01*
Y320291D01*
X508039D01*
Y318291D01*
X509039D01*
X487976Y332465D02*
Y331465D01*
X489976D01*
Y332465D01*
X490976D01*
Y334465D01*
X489976D01*
Y335465D01*
X487976D01*
Y334465D01*
X486976D01*
Y332465D01*
X487976D01*
X492307Y313961D02*
Y312961D01*
X494307D01*
Y313961D01*
X495307D01*
Y315961D01*
X494307D01*
Y316961D01*
X492307D01*
Y315961D01*
X491307D01*
Y313961D01*
X492307D01*
X451362Y403823D02*
Y402823D01*
X453362D01*
Y403823D01*
X454362D01*
Y405823D01*
X453362D01*
Y406823D01*
X451362D01*
Y405823D01*
X450362D01*
Y403823D01*
X451362D01*
X474984Y364551D02*
Y363551D01*
X476984D01*
Y364551D01*
X477984D01*
Y366551D01*
X476984D01*
Y367551D01*
X474984D01*
Y366551D01*
X473984D01*
Y364551D01*
X474984D01*
X481677Y344571D02*
Y343571D01*
X483677D01*
Y344571D01*
X484677D01*
Y346571D01*
X483677D01*
Y347571D01*
X481677D01*
Y346571D01*
X480677D01*
Y344571D01*
X481677D01*
X446736Y473311D02*
Y472311D01*
X448736D01*
Y473311D01*
X449736D01*
Y475311D01*
X448736D01*
Y476311D01*
X446736D01*
Y475311D01*
X445736D01*
Y473311D01*
X446736D01*
X446638Y467701D02*
Y466701D01*
X448638D01*
Y467701D01*
X449638D01*
Y469701D01*
X448638D01*
Y470701D01*
X446638D01*
Y469701D01*
X445638D01*
Y467701D01*
X446638D01*
X461106Y466815D02*
Y465815D01*
X463106D01*
Y466815D01*
X464106D01*
Y468815D01*
X463106D01*
Y469815D01*
X461106D01*
Y468815D01*
X460106D01*
Y466815D01*
X461106D01*
X478429Y467209D02*
Y466209D01*
X480429D01*
Y467209D01*
X481429D01*
Y469209D01*
X480429D01*
Y470209D01*
X478429D01*
Y469209D01*
X477429D01*
Y467209D01*
X478429D01*
X469768Y467286D02*
Y466286D01*
X471768D01*
Y467286D01*
X472768D01*
Y469286D01*
X471768D01*
Y470286D01*
X469768D01*
Y469286D01*
X468768D01*
Y467286D01*
X469768D01*
X442701Y246736D02*
Y245736D01*
X444701D01*
Y246736D01*
X445701D01*
Y248736D01*
X444701D01*
Y249736D01*
X442701D01*
Y248736D01*
X441701D01*
Y246736D01*
X442701D01*
X476362Y239846D02*
Y238846D01*
X478362D01*
Y239846D01*
X479362D01*
Y241846D01*
X478362D01*
Y242846D01*
X476362D01*
Y241846D01*
X475362D01*
Y239846D01*
X476362D01*
X476461Y254807D02*
Y253807D01*
X478461D01*
Y254807D01*
X479461D01*
Y256807D01*
X478461D01*
Y257807D01*
X476461D01*
Y256807D01*
X475461D01*
Y254807D01*
X476461D01*
X457661Y293488D02*
Y292488D01*
X459661D01*
Y293488D01*
X460661D01*
Y295488D01*
X459661D01*
Y296488D01*
X457661D01*
Y295488D01*
X456661D01*
Y293488D01*
X457661D01*
X373016Y243882D02*
Y242882D01*
X375016D01*
Y243882D01*
X376016D01*
Y245882D01*
X375016D01*
Y246882D01*
X373016D01*
Y245882D01*
X372016D01*
Y243882D01*
X373016D01*
X304512Y290339D02*
Y289339D01*
X306512D01*
Y290339D01*
X307512D01*
Y292339D01*
X306512D01*
Y293339D01*
X304512D01*
Y292339D01*
X303512D01*
Y290339D01*
X304512D01*
X475772Y299000D02*
Y298000D01*
X477772D01*
Y299000D01*
X478772D01*
Y301000D01*
X477772D01*
Y302000D01*
X475772D01*
Y301000D01*
X474772D01*
Y299000D01*
X475772D01*
X437189Y286008D02*
Y285008D01*
X439189D01*
Y286008D01*
X440189D01*
Y288008D01*
X439189D01*
Y289008D01*
X437189D01*
Y288008D01*
X436189D01*
Y286008D01*
X437189D01*
X443094Y280496D02*
Y279496D01*
X445094D01*
Y280496D01*
X446095D01*
Y282496D01*
X445094D01*
Y283496D01*
X443094D01*
Y282496D01*
X442095D01*
Y280496D01*
X443094D01*
X461598Y300181D02*
Y299181D01*
X463598D01*
Y300181D01*
X464598D01*
Y302181D01*
X463598D01*
Y303181D01*
X461598D01*
Y302181D01*
X460598D01*
Y300181D01*
X461598D01*
X291520Y279709D02*
Y278709D01*
X293520D01*
Y279709D01*
X294520D01*
Y281709D01*
X293520D01*
Y282709D01*
X291520D01*
Y281709D01*
X290520D01*
Y279709D01*
X291520D01*
X416323Y269472D02*
Y268472D01*
X418323D01*
Y269472D01*
X419323D01*
Y271472D01*
X418323D01*
Y272472D01*
X416323D01*
Y271472D01*
X415323D01*
Y269472D01*
X416323D01*
X386008Y264748D02*
Y263748D01*
X388008D01*
Y264748D01*
X389008D01*
Y266748D01*
X388008D01*
Y267748D01*
X386008D01*
Y266748D01*
X385008D01*
Y264748D01*
X386008D01*
X291520Y296244D02*
Y295244D01*
X293520D01*
Y296244D01*
X294520D01*
Y298244D01*
X293520D01*
Y299244D01*
X291520D01*
Y298244D01*
X290520D01*
Y296244D01*
X291520D01*
X273016Y276559D02*
Y275559D01*
X275016D01*
Y276559D01*
X276016D01*
Y278559D01*
X275016D01*
Y279559D01*
X273016D01*
Y278559D01*
X272016D01*
Y276559D01*
X273016D01*
X313961Y250181D02*
Y249181D01*
X315961D01*
Y250181D01*
X316961D01*
Y252181D01*
X315961D01*
Y253181D01*
X313961D01*
Y252181D01*
X312961D01*
Y250181D01*
X313961D01*
X443882Y256087D02*
Y255087D01*
X445882D01*
Y256087D01*
X446882D01*
Y258087D01*
X445882D01*
Y259087D01*
X443882D01*
Y258087D01*
X442882D01*
Y256087D01*
X443882D01*
X440339Y260811D02*
Y259811D01*
X442339D01*
Y260811D01*
X443339D01*
Y262811D01*
X442339D01*
Y263811D01*
X440339D01*
Y262811D01*
X439339D01*
Y260811D01*
X440339D01*
X416323Y331677D02*
Y330677D01*
X418323D01*
Y331677D01*
X419323D01*
Y333677D01*
X418323D01*
Y334677D01*
X416323D01*
Y333677D01*
X415323D01*
Y331677D01*
X416323D01*
X457661Y276559D02*
Y275559D01*
X459661D01*
Y276559D01*
X460661D01*
Y278559D01*
X459661D01*
Y279559D01*
X457661D01*
Y278559D01*
X456661D01*
Y276559D01*
X457661D01*
X463567Y210417D02*
Y209417D01*
X465567D01*
Y210417D01*
X466567D01*
Y212417D01*
X465567D01*
Y213417D01*
X463567D01*
Y212417D01*
X462567D01*
Y210417D01*
X463567D01*
X324590Y229709D02*
Y228709D01*
X326590D01*
Y229709D01*
X327590D01*
Y231709D01*
X326590D01*
Y232709D01*
X324590D01*
Y231709D01*
X323590D01*
Y229709D01*
X324590D01*
X324591Y214748D02*
Y213748D01*
X326591D01*
Y214748D01*
X327591D01*
Y216748D01*
X326591D01*
Y217748D01*
X324591D01*
Y216748D01*
X323591D01*
Y214748D01*
X324591D01*
X322622Y199787D02*
Y198787D01*
X324622D01*
Y199787D01*
X325622D01*
Y201787D01*
X324622D01*
Y202787D01*
X322622D01*
Y201787D01*
X321622D01*
Y199787D01*
X322622D01*
X330496Y185614D02*
Y184614D01*
X332496D01*
Y185614D01*
X333496D01*
Y187614D01*
X332496D01*
Y188614D01*
X330496D01*
Y187614D01*
X329496D01*
Y185614D01*
X330496D01*
X393094Y160024D02*
Y159024D01*
X395094D01*
Y160024D01*
X396094D01*
Y162024D01*
X395094D01*
Y163024D01*
X393094D01*
Y162024D01*
X392094D01*
Y160024D01*
X393094D01*
X384827Y173803D02*
Y172803D01*
X386827D01*
Y173803D01*
X387827D01*
Y175803D01*
X386827D01*
Y176803D01*
X384827D01*
Y175803D01*
X383827D01*
Y173803D01*
X384827D01*
X386795Y205299D02*
Y204299D01*
X388795D01*
Y205299D01*
X389795D01*
Y207299D01*
X388795D01*
Y208299D01*
X386795D01*
Y207299D01*
X385795D01*
Y205299D01*
X386795D01*
Y189157D02*
Y188157D01*
X388795D01*
Y189157D01*
X389795D01*
Y191157D01*
X388795D01*
Y192157D01*
X386795D01*
Y191157D01*
X385795D01*
Y189157D01*
X386795D01*
X356874Y161992D02*
Y160992D01*
X358874D01*
Y161992D01*
X359874D01*
Y163992D01*
X358874D01*
Y164992D01*
X356874D01*
Y163992D01*
X355874D01*
Y161992D01*
X356874D01*
X515929Y293094D02*
Y292094D01*
X517929D01*
Y293094D01*
X518929D01*
Y295094D01*
X517929D01*
Y296094D01*
X515929D01*
Y295094D01*
X514929D01*
Y293094D01*
X515929D01*
X280102Y291126D02*
Y290126D01*
X282102D01*
Y291126D01*
X283102D01*
Y293126D01*
X282102D01*
Y294126D01*
X280102D01*
Y293126D01*
X279102D01*
Y291126D01*
X280102D01*
X481284Y316622D02*
Y315622D01*
X483284D01*
Y316622D01*
X484283D01*
Y318622D01*
X483284D01*
Y319622D01*
X481284D01*
Y318622D01*
X480283D01*
Y316622D01*
X481284D01*
D99*
X378890Y384409D02*
G03*
X378890Y384409I-2000J0D01*
G01*
X383890Y490394D02*
G03*
X383890Y490394I-2000J0D01*
G01*
X388890Y384409D02*
G03*
X388890Y384409I-2000J0D01*
G01*
M02*
