G04*
G04 #@! TF.GenerationSoftware,Altium Limited,Altium Designer,23.8.1 (32)*
G04*
G04 Layer_Color=8388736*
%FSLAX25Y25*%
%MOIN*%
G70*
G04*
G04 #@! TF.SameCoordinates,E8196DF9-6BE1-4897-A204-F033BB6E7C32*
G04*
G04*
G04 #@! TF.FilePolarity,Positive*
G04*
G01*
G75*
%ADD10C,0.00787*%
D10*
X306555Y336752D02*
Y338051D01*
Y336752D02*
X309035D01*
Y338051D01*
X306555D02*
X309035D01*
X455315Y304528D02*
X495472D01*
Y264370D02*
Y304528D01*
X455315Y264370D02*
X495472D01*
X455315D02*
Y304528D01*
X446457Y335994D02*
X449606D01*
X446457Y329695D02*
Y335994D01*
Y329695D02*
X449606D01*
Y335994D01*
X375590Y329331D02*
Y333071D01*
X368701D02*
X375590D01*
X368701Y329331D02*
Y333071D01*
Y329331D02*
X375590D01*
X373130Y315786D02*
X376476D01*
Y321888D01*
X373130D02*
X376476D01*
X373130Y315786D02*
Y321888D01*
X452169Y410724D02*
Y413874D01*
Y410724D02*
X458468D01*
Y413874D01*
X452169D02*
X458468D01*
X476317Y424508D02*
X482420D01*
Y421162D02*
Y424508D01*
X476317Y421162D02*
X482420D01*
X476317D02*
Y424508D01*
X458457Y420276D02*
Y423425D01*
X452157D02*
X458457D01*
X452157Y420276D02*
Y423425D01*
Y420276D02*
X458457D01*
X507579Y300295D02*
X511319D01*
Y293406D02*
Y300295D01*
X507579Y293406D02*
X511319D01*
X507579D02*
Y300295D01*
X438681Y266634D02*
Y273523D01*
X442421D01*
Y266634D02*
Y273523D01*
X438681Y266634D02*
X442421D01*
X419685Y249606D02*
Y255906D01*
X422835D01*
Y249606D02*
Y255906D01*
X419685Y249606D02*
X422835D01*
X415748Y305512D02*
Y311811D01*
X418898D01*
Y305512D02*
Y311811D01*
X415748Y305512D02*
X418898D01*
X456201Y315846D02*
Y319586D01*
X449311Y315846D02*
X456201D01*
X449311D02*
Y319586D01*
X456201D01*
X419193Y274114D02*
Y281004D01*
X415453Y274114D02*
X419193D01*
X415453D02*
Y281004D01*
X419193D01*
X392519Y200984D02*
Y211614D01*
Y200984D02*
X405905D01*
Y211614D01*
X392519D02*
X405905D01*
X360531Y243012D02*
Y246752D01*
Y243012D02*
X367027D01*
Y246752D01*
X360531D02*
X367027D01*
X343209Y184744D02*
Y188484D01*
X336319D02*
X343209D01*
X336319Y184744D02*
Y188484D01*
Y184744D02*
X343209D01*
X343898Y210236D02*
Y221260D01*
X330118D02*
X343898D01*
X330118Y210236D02*
Y221260D01*
Y210236D02*
X343898D01*
X330315Y225787D02*
Y236417D01*
Y225787D02*
X343701D01*
Y236417D01*
X330315D02*
X343701D01*
X419390Y145473D02*
X453248D01*
X420394Y143189D02*
Y165748D01*
Y143189D02*
X452244D01*
Y165748D01*
X420394D02*
X452244D01*
X280512Y303524D02*
Y308445D01*
X272638Y303524D02*
X280512D01*
X272638D02*
Y308445D01*
X280512D01*
X384063Y360138D02*
Y366437D01*
X387213D01*
Y360138D02*
Y366437D01*
X384063Y360138D02*
X387213D01*
X405413Y159154D02*
Y162894D01*
X398524D02*
X405413D01*
X398524Y159154D02*
Y162894D01*
Y159154D02*
X405413D01*
X428937Y184646D02*
Y195669D01*
Y184646D02*
X442717D01*
Y195669D01*
X428937D02*
X442717D01*
X420866Y220177D02*
Y223917D01*
X413977D02*
X420866D01*
X413977Y220177D02*
Y223917D01*
Y220177D02*
X420866D01*
X406496Y185039D02*
Y196063D01*
X392717D02*
X406496D01*
X392717Y185039D02*
Y196063D01*
Y185039D02*
X406496D01*
X342618Y284350D02*
X346358D01*
Y291240D01*
X342618D02*
X346358D01*
X342618Y284350D02*
Y291240D01*
X450394Y253740D02*
X457283D01*
X450394Y250000D02*
Y253740D01*
Y250000D02*
X457283D01*
Y253740D01*
X431201Y249803D02*
X434941D01*
Y256693D01*
X431201D02*
X434941D01*
X431201Y249803D02*
Y256693D01*
X496949Y253838D02*
X503838D01*
X496949Y250098D02*
Y253838D01*
Y250098D02*
X503838D01*
Y253838D01*
X462697Y217028D02*
X466437D01*
Y223523D01*
X462697D02*
X466437D01*
X462697Y217028D02*
Y223523D01*
X415748Y294488D02*
X418898D01*
X415748Y288189D02*
Y294488D01*
Y288189D02*
X418898D01*
Y294488D01*
X340059Y332776D02*
Y336516D01*
X333169D02*
X340059D01*
X333169Y332776D02*
Y336516D01*
Y332776D02*
X340059D01*
X415453Y321358D02*
X419193D01*
Y328248D01*
X415453D02*
X419193D01*
X415453Y321358D02*
Y328248D01*
X459547Y315846D02*
Y319586D01*
Y315846D02*
X466437D01*
Y319586D01*
X459547D02*
X466437D01*
X441142Y329634D02*
Y335933D01*
X437992Y329634D02*
X441142D01*
X437992D02*
Y335933D01*
X441142D01*
M02*
