G04*
G04 #@! TF.GenerationSoftware,Altium Limited,Altium Designer,23.4.1 (23)*
G04*
G04 Layer_Color=128*
%FSLAX25Y25*%
%MOIN*%
G70*
G04*
G04 #@! TF.SameCoordinates,3C4277FE-F450-4ED3-BB46-299587BC0101*
G04*
G04*
G04 #@! TF.FilePolarity,Positive*
G04*
G01*
G75*
%ADD13C,0.00500*%
D13*
X447441Y194095D02*
X450984D01*
X449213Y192323D02*
Y195866D01*
X256768Y153220D02*
X258736D01*
X257752Y152236D02*
Y154205D01*
X256768Y127236D02*
X258736D01*
X257752Y126252D02*
Y128220D01*
X518602Y166732D02*
X520571D01*
X519587Y165748D02*
Y167717D01*
X518602Y192717D02*
X520571D01*
X519587Y191732D02*
Y193701D01*
X427756Y194095D02*
X431299D01*
X429528Y192323D02*
Y195866D01*
X437598Y194095D02*
X441142D01*
X439370Y192323D02*
Y195866D01*
X457283Y194095D02*
X460827D01*
X459055Y192323D02*
Y195866D01*
X354941Y341142D02*
X358839D01*
X356890Y339193D02*
Y343091D01*
X354941Y366732D02*
X358839D01*
X356890Y364783D02*
Y368681D01*
X325807Y300197D02*
X329705D01*
X327756Y298248D02*
Y302146D01*
X325807Y325787D02*
X329705D01*
X327756Y323839D02*
Y327736D01*
X379882Y490394D02*
X383898D01*
X381890Y488386D02*
Y492402D01*
X295020Y363465D02*
X298524D01*
X296772Y361713D02*
Y365217D01*
X509055Y103937D02*
X521654D01*
X515354Y97638D02*
Y110236D01*
X252756Y104724D02*
X265354D01*
X259055Y98425D02*
Y111024D01*
X253543Y484646D02*
X266142D01*
X259843Y478346D02*
Y490945D01*
X507480Y484646D02*
X520079D01*
X513780Y478346D02*
Y490945D01*
X305020Y363465D02*
X308524D01*
X306772Y361713D02*
Y365217D01*
X322815Y383465D02*
X330728D01*
X326772Y379508D02*
Y387421D01*
X282815Y383465D02*
X290728D01*
X286772Y379508D02*
Y387421D01*
X374882Y384409D02*
X378898D01*
X376890Y382401D02*
Y386417D01*
X384882Y384409D02*
X388898D01*
X386890Y382401D02*
Y386417D01*
X343524Y325787D02*
X347421D01*
X345472Y323839D02*
Y327736D01*
X343524Y300197D02*
X347421D01*
X345472Y298248D02*
Y302146D01*
X372657Y366732D02*
X376555D01*
X374606Y364783D02*
Y368681D01*
X372657Y341142D02*
X376555D01*
X374606Y339193D02*
Y343091D01*
X287983Y231496D02*
X289183D01*
X288583Y230896D02*
Y232096D01*
X280884Y229528D02*
X283683D01*
X282283Y228128D02*
Y230928D01*
X443790Y486220D02*
X444990D01*
X444390Y485620D02*
Y486820D01*
X377734Y143701D02*
X380534D01*
X379134Y142301D02*
Y145101D01*
X396238Y144095D02*
X399038D01*
X397638Y142694D02*
Y145494D01*
X491907Y161811D02*
X494707D01*
X493307Y160411D02*
Y163211D01*
X507655Y146457D02*
X510455D01*
X509055Y145057D02*
Y147857D01*
X507655Y156693D02*
X510455D01*
X509055Y155293D02*
Y158093D01*
X494269Y184646D02*
X497069D01*
X495669Y183246D02*
Y186046D01*
X453718Y102756D02*
X456518D01*
X455118Y101356D02*
Y104156D01*
X477362Y150394D02*
X478543D01*
X477953Y149803D02*
Y150984D01*
X275372Y134646D02*
X278172D01*
X276772Y133246D02*
Y136046D01*
X361567Y184646D02*
X362748D01*
X362158Y184055D02*
Y185236D01*
X365529Y174016D02*
X368329D01*
X366929Y172616D02*
Y175416D01*
X361592Y166142D02*
X364392D01*
X362992Y164742D02*
Y167542D01*
X361986Y118110D02*
X364786D01*
X363386Y116710D02*
Y119510D01*
X306102Y151575D02*
X307283D01*
X306693Y150984D02*
Y152165D01*
X349781Y173622D02*
X352581D01*
X351181Y172222D02*
Y175022D01*
X304899Y124803D02*
X307699D01*
X306299Y123403D02*
Y126203D01*
X327362Y145669D02*
X328543D01*
X327953Y145079D02*
Y146260D01*
X332874Y144095D02*
X334055D01*
X333465Y143504D02*
Y144685D01*
X338364Y137402D02*
X341164D01*
X339764Y136002D02*
Y138802D01*
X319860Y99213D02*
X322660D01*
X321260Y97813D02*
Y100613D01*
X337970Y98819D02*
X340770D01*
X339370Y97419D02*
Y100219D01*
X326969Y156933D02*
X328150D01*
X327559Y156342D02*
Y157524D01*
X295057Y109449D02*
X297857D01*
X296457Y108049D02*
Y110849D01*
X340158Y163681D02*
X340945D01*
X340551Y163287D02*
Y164075D01*
X337106Y160728D02*
X337894D01*
X337500Y160335D02*
Y161122D01*
X340158Y160728D02*
X340945D01*
X340551Y160335D02*
Y161122D01*
X343209Y160728D02*
X343996D01*
X343602Y160335D02*
Y161122D01*
X337106Y156594D02*
X337894D01*
X337500Y156201D02*
Y156988D01*
X340158Y156594D02*
X340945D01*
X340551Y156201D02*
Y156988D01*
X343209Y156594D02*
X343996D01*
X343602Y156201D02*
Y156988D01*
X340158Y153642D02*
X340945D01*
X340551Y153248D02*
Y154035D01*
X326772Y162795D02*
X327953D01*
X327362Y162205D02*
Y163386D01*
X292323Y155512D02*
X293504D01*
X292913Y154921D02*
Y156102D01*
X320866Y165551D02*
X322047D01*
X321457Y164961D02*
Y166142D01*
X320660Y337008D02*
X321860D01*
X321260Y336408D02*
Y337608D01*
X431671Y101181D02*
X434471D01*
X433071Y99781D02*
Y102581D01*
X421828Y101181D02*
X424628D01*
X423228Y99781D02*
Y102581D01*
X402537Y98819D02*
X405337D01*
X403937Y97419D02*
Y100219D01*
X330096Y136221D02*
X332896D01*
X331496Y134820D02*
Y137620D01*
X398613Y222047D02*
X399813D01*
X399213Y221447D02*
Y222647D01*
X463967Y211417D02*
X465167D01*
X464567Y210817D02*
Y212017D01*
X458061Y277559D02*
X459261D01*
X458661Y276959D02*
Y278159D01*
X416723Y332677D02*
X417923D01*
X417323Y332077D02*
Y333277D01*
X386408Y265748D02*
X387608D01*
X387008Y265148D02*
Y266348D01*
X416723Y270472D02*
X417923D01*
X417323Y269872D02*
Y271072D01*
X461998Y301181D02*
X463198D01*
X462598Y300581D02*
Y301781D01*
X443101Y245768D02*
X444301D01*
X443701Y245168D02*
Y246368D01*
X451762Y404823D02*
X452962D01*
X452362Y404223D02*
Y405423D01*
X276073Y322736D02*
X277273D01*
X276673Y322136D02*
Y323336D01*
X276172Y336220D02*
X277372D01*
X276772Y335620D02*
Y336820D01*
X456487Y340157D02*
X457687D01*
X457087Y339557D02*
Y340757D01*
X461998Y245276D02*
X463198D01*
X462598Y244676D02*
Y245876D01*
X494282Y244980D02*
X495482D01*
X494882Y244380D02*
Y245580D01*
X445463Y317717D02*
X446663D01*
X446063Y317117D02*
Y318317D01*
X480207Y481693D02*
X481407D01*
X480807Y481093D02*
Y482293D01*
X508849Y290157D02*
X510049D01*
X509449Y289557D02*
Y290757D01*
X480502Y491339D02*
X481702D01*
X481102Y490739D02*
Y491939D01*
X317117Y300394D02*
X318317D01*
X317717Y299794D02*
Y300994D01*
X346644Y366929D02*
X347844D01*
X347244Y366329D02*
Y367529D01*
X301369Y218110D02*
X302569D01*
X301969Y217510D02*
Y218710D01*
X356487Y319291D02*
X357687D01*
X357087Y318691D02*
Y319891D01*
X432077Y277953D02*
X433277D01*
X432677Y277353D02*
Y278553D01*
X443285Y421850D02*
X446085D01*
X444685Y420450D02*
Y423250D01*
X370254Y258268D02*
X373054D01*
X371654Y256868D02*
Y259668D01*
X410017Y261417D02*
X412817D01*
X411417Y260017D02*
Y262817D01*
X288376Y269685D02*
X289576D01*
X288976Y269085D02*
Y270285D01*
X408455Y285827D02*
X409655D01*
X409055Y285227D02*
Y286427D01*
X353718Y273622D02*
X356518D01*
X355118Y272222D02*
Y275022D01*
X384427Y316142D02*
X387227D01*
X385827Y314742D02*
Y317542D01*
X436789Y450394D02*
X439589D01*
X438189Y448994D02*
Y451794D01*
X489151Y450350D02*
X491951D01*
X490551Y448950D02*
Y451750D01*
X479702Y450350D02*
X482502D01*
X481102Y448950D02*
Y451750D01*
X471041Y450394D02*
X473841D01*
X472441Y448994D02*
Y451794D01*
X446238Y450394D02*
X449038D01*
X447638Y448994D02*
Y451794D01*
X455293Y450394D02*
X458093D01*
X456693Y448994D02*
Y451794D01*
X480883Y416142D02*
X483683D01*
X482283Y414742D02*
Y417542D01*
X508049Y305118D02*
X510849D01*
X509449Y303718D02*
Y306518D01*
X438167Y341732D02*
X440967D01*
X439567Y340332D02*
Y343132D01*
X453718Y324803D02*
X456518D01*
X455118Y323403D02*
Y326203D01*
X501454Y245472D02*
X504254D01*
X502854Y244072D02*
Y246872D01*
X471828Y250000D02*
X474628D01*
X473228Y248600D02*
Y251400D01*
X487392Y468996D02*
X488592D01*
X487992Y468396D02*
Y469596D01*
X464939Y483169D02*
X467739D01*
X466339Y481769D02*
Y484569D01*
X431671Y244980D02*
X434471D01*
X433071Y243580D02*
Y246380D01*
X454899Y243307D02*
X457699D01*
X456299Y241907D02*
Y244707D01*
X471828Y340945D02*
X474628D01*
X473228Y339545D02*
Y342345D01*
X320266Y263386D02*
X321466D01*
X320866Y262786D02*
Y263986D01*
X509439Y319291D02*
X510639D01*
X510039Y318691D02*
Y319891D01*
X488376Y333465D02*
X489576D01*
X488976Y332865D02*
Y334065D01*
X492707Y314961D02*
X493907D01*
X493307Y314361D02*
Y315561D01*
X475384Y365551D02*
X476584D01*
X475984Y364951D02*
Y366151D01*
X482077Y345571D02*
X483277D01*
X482677Y344971D02*
Y346171D01*
X447136Y474311D02*
X448336D01*
X447736Y473711D02*
Y474911D01*
X447038Y468701D02*
X448238D01*
X447638Y468101D02*
Y469301D01*
X461506Y467815D02*
X462706D01*
X462106Y467215D02*
Y468415D01*
X478829Y468209D02*
X480029D01*
X479429Y467609D02*
Y468809D01*
X470168Y468286D02*
X471368D01*
X470768Y467686D02*
Y468886D01*
X476762Y240846D02*
X477962D01*
X477362Y240246D02*
Y241446D01*
X476861Y255807D02*
X478061D01*
X477461Y255207D02*
Y256407D01*
X458061Y294488D02*
X459261D01*
X458661Y293888D02*
Y295088D01*
X304912Y291339D02*
X306112D01*
X305512Y290739D02*
Y291939D01*
X476172Y300000D02*
X477372D01*
X476772Y299400D02*
Y300600D01*
X437589Y287008D02*
X438789D01*
X438189Y286408D02*
Y287608D01*
X443494Y281496D02*
X444694D01*
X444094Y280896D02*
Y282096D01*
X291920Y280709D02*
X293120D01*
X292520Y280109D02*
Y281309D01*
X291920Y297244D02*
X293120D01*
X292520Y296644D02*
Y297844D01*
X273416Y277559D02*
X274616D01*
X274016Y276959D02*
Y278159D01*
X314361Y251181D02*
X315561D01*
X314961Y250581D02*
Y251781D01*
X444282Y257087D02*
X445482D01*
X444882Y256487D02*
Y257687D01*
X440739Y261811D02*
X441939D01*
X441339Y261211D02*
Y262411D01*
X516329Y294094D02*
X517529D01*
X516929Y293494D02*
Y294694D01*
X280502Y292126D02*
X281702D01*
X281102Y291526D02*
Y292726D01*
X481683Y317622D02*
X482883D01*
X482283Y317022D02*
Y318222D01*
M02*
