G04*
G04 #@! TF.GenerationSoftware,Altium Limited,Altium Designer,23.4.1 (23)*
G04*
G04 Layer_Color=16711935*
%FSLAX25Y25*%
%MOIN*%
G70*
G04*
G04 #@! TF.SameCoordinates,3C4277FE-F450-4ED3-BB46-299587BC0101*
G04*
G04*
G04 #@! TF.FilePolarity,Positive*
G04*
G01*
G75*
%ADD10C,0.00394*%
%ADD11C,0.00787*%
%ADD13C,0.00500*%
%ADD15C,0.01000*%
D10*
X366602Y484168D02*
G03*
X344390Y466418I15289J-41904D01*
G01*
X366602Y484168D02*
G03*
X369390Y487992I-1228J3824D01*
G01*
X394390D02*
G03*
X397178Y484168I4016J0D01*
G01*
X344390Y418111D02*
G03*
X368423Y399741I37501J24154D01*
G01*
X419391Y466418D02*
G03*
X397179Y484168I-37501J-24154D01*
G01*
X371398Y395858D02*
G03*
X368421Y399737I-4016J0D01*
G01*
X395357Y399739D02*
G03*
X419390Y418109I-13468J42525D01*
G01*
X395358Y399737D02*
G03*
X392382Y395858I1039J-3879D01*
G01*
X442717Y137795D02*
X453346D01*
X442717Y151181D02*
X453346D01*
X442717Y137795D02*
Y151181D01*
X453346Y137795D02*
Y151181D01*
X309744Y244567D02*
Y258071D01*
X274744D02*
X309744D01*
X274744Y244567D02*
Y258071D01*
Y244567D02*
X309744D01*
Y258071D01*
X274744D02*
X309744D01*
X274744Y244567D02*
Y258071D01*
X304823Y350394D02*
X308563D01*
X304823Y343898D02*
X308563D01*
Y350394D01*
X304823Y343898D02*
Y350394D01*
X461565Y248258D02*
X468455D01*
X461565Y252037D02*
X468455D01*
X461565Y248258D02*
Y252037D01*
X468455Y248258D02*
Y252037D01*
X394390Y487992D02*
Y491161D01*
X369390Y487992D02*
Y491161D01*
X371398Y383681D02*
X392382D01*
X344390Y418109D02*
Y466418D01*
X369390Y491161D02*
X394390D01*
X419390Y418109D02*
Y466418D01*
X371398Y383681D02*
Y395858D01*
X392382Y383681D02*
Y395858D01*
X324823Y301201D02*
X348406D01*
X324823D02*
Y324784D01*
X348406D01*
Y301201D02*
Y324784D01*
X353957Y342146D02*
Y365728D01*
Y342146D02*
X377539D01*
Y365728D01*
X353957D02*
X377539D01*
X355217Y331594D02*
X358957D01*
X355217Y325098D02*
X358957D01*
Y331594D01*
X355217Y325098D02*
Y331594D01*
X467421Y332776D02*
X473917D01*
X467421Y336516D02*
X473917D01*
Y332776D02*
Y336516D01*
X467421Y332776D02*
Y336516D01*
X290630Y309744D02*
X294409D01*
X290630Y302854D02*
X294409D01*
Y309744D01*
X290630Y302854D02*
Y309744D01*
X371063Y289764D02*
X402559D01*
X371063D02*
Y304724D01*
X402559D01*
Y289764D02*
Y304724D01*
X300099Y231201D02*
X303839D01*
X300099Y224705D02*
X303839D01*
Y231201D01*
X300099Y224705D02*
Y231201D01*
X401654Y251476D02*
X405433D01*
X401654Y244587D02*
X405433D01*
Y251476D01*
X401654Y244587D02*
Y251476D01*
X353248Y286122D02*
X356988D01*
X353248Y279626D02*
X356988D01*
Y286122D01*
X353248Y279626D02*
Y286122D01*
X379429Y260138D02*
X385925D01*
X379429Y256398D02*
X385925D01*
X379429D02*
Y260138D01*
X385925Y256398D02*
Y260138D01*
X430984Y266634D02*
Y273524D01*
X434764Y266634D02*
Y273524D01*
X430984Y266634D02*
X434764D01*
X430984Y273524D02*
X434764D01*
X483366Y250079D02*
X490256D01*
X483366Y253858D02*
X490256D01*
Y250079D02*
Y253858D01*
X483366Y250079D02*
Y253858D01*
X456398Y332776D02*
X462894D01*
X456398Y336516D02*
X462894D01*
Y332776D02*
Y336516D01*
X456398Y332776D02*
Y336516D01*
D11*
X274091Y145346D02*
G03*
X274091Y145346I-394J0D01*
G01*
X504035Y174606D02*
G03*
X504035Y174606I-394J0D01*
G01*
X471917Y151390D02*
G03*
X471917Y151390I-394J0D01*
G01*
X272579Y243307D02*
G03*
X272579Y243307I-394J0D01*
G01*
D13*
X247909Y155701D02*
G03*
X249484Y155189I1043J532D01*
G01*
X246929Y154978D02*
G03*
X249105Y153618I1768J408D01*
G01*
X249484Y125268D02*
G03*
X247909Y124756I-532J-1043D01*
G01*
X249099Y126840D02*
G03*
X246731Y125473I-501J-1868D01*
G01*
X529429Y164252D02*
G03*
X527854Y164764I-1043J-532D01*
G01*
X530410Y164975D02*
G03*
X528233Y166335I-1768J-408D01*
G01*
X527854Y194685D02*
G03*
X529429Y195197I532J1043D01*
G01*
X528240Y193113D02*
G03*
X530608Y194480I501J1868D01*
G01*
X252043Y125268D02*
Y155189D01*
X269169Y125268D02*
Y155189D01*
X252043Y125268D02*
X269169D01*
X249287D02*
X252043D01*
X249287D02*
Y155189D01*
X249484D01*
X269169D01*
X246925Y154992D02*
X247909Y155701D01*
X246925Y152827D02*
X249091D01*
X246925Y127630D02*
Y152827D01*
Y127630D02*
X249091D01*
X246728Y125465D02*
X247909Y124756D01*
X252043Y112669D02*
Y125268D01*
X525295Y164764D02*
Y194685D01*
X508169Y164764D02*
Y194685D01*
X525295D01*
X528051D01*
Y164764D02*
Y194685D01*
X527854Y164764D02*
X528051D01*
X508169D02*
X527854D01*
X529429Y164252D02*
X530413Y164961D01*
X528248Y167126D02*
X530413D01*
Y192323D01*
X528248D02*
X530413D01*
X529429Y195197D02*
X530610Y194488D01*
X525295Y194685D02*
Y207283D01*
X472311Y142728D02*
Y147453D01*
X466012Y142728D02*
X472311D01*
X466012D02*
Y147453D01*
X472311D01*
D15*
X253028Y121134D02*
X254627D01*
Y120334D01*
X254361Y120068D01*
X253827D01*
X253561Y120334D01*
Y121134D01*
X254361Y118468D02*
X254627Y118735D01*
Y119268D01*
X254361Y119534D01*
X253294D01*
X253028Y119268D01*
Y118735D01*
X253294Y118468D01*
X254627Y117935D02*
X253028D01*
Y117135D01*
X253294Y116869D01*
X253561D01*
X253827Y117135D01*
Y117935D01*
Y117135D01*
X254094Y116869D01*
X254361D01*
X254627Y117135D01*
Y117935D01*
Y113670D02*
Y114736D01*
X253028D01*
Y113670D01*
X253827Y114736D02*
Y114203D01*
X253028Y113136D02*
X254627D01*
X253028Y112070D01*
X254627D01*
Y111537D02*
X253028D01*
Y110737D01*
X253294Y110471D01*
X254361D01*
X254627Y110737D01*
Y111537D01*
X524311Y198819D02*
X522712D01*
Y199619D01*
X522978Y199885D01*
X523511D01*
X523778Y199619D01*
Y198819D01*
X522978Y201485D02*
X522712Y201218D01*
Y200685D01*
X522978Y200418D01*
X524044D01*
X524311Y200685D01*
Y201218D01*
X524044Y201485D01*
X522712Y202018D02*
X524311D01*
Y202818D01*
X524044Y203084D01*
X523778D01*
X523511Y202818D01*
Y202018D01*
Y202818D01*
X523245Y203084D01*
X522978D01*
X522712Y202818D01*
Y202018D01*
Y206283D02*
Y205217D01*
X524311D01*
Y206283D01*
X523511Y205217D02*
Y205750D01*
X524311Y206816D02*
X522712D01*
X524311Y207883D01*
X522712D01*
Y208416D02*
X524311D01*
Y209215D01*
X524044Y209482D01*
X522978D01*
X522712Y209215D01*
Y208416D01*
M02*
