G04*
G04 #@! TF.GenerationSoftware,Altium Limited,Altium Designer,23.4.1 (23)*
G04*
G04 Layer_Color=32768*
%FSLAX25Y25*%
%MOIN*%
G70*
G04*
G04 #@! TF.SameCoordinates,3C4277FE-F450-4ED3-BB46-299587BC0101*
G04*
G04*
G04 #@! TF.FilePolarity,Positive*
G04*
G01*
G75*
%ADD11C,0.00787*%
D11*
X385324Y179331D02*
Y194685D01*
X366645D02*
X385324D01*
X366645Y179331D02*
Y194685D01*
Y179331D02*
X385324D01*
X450000Y309843D02*
X500787D01*
Y259055D02*
Y309843D01*
X450000Y259055D02*
X500787D01*
X450000D02*
Y309843D01*
X445252Y338577D02*
X450811D01*
X445252Y327112D02*
Y338577D01*
Y327112D02*
X450811D01*
Y338577D01*
X376870Y328839D02*
Y333563D01*
X367421D02*
X376870D01*
X367421Y328839D02*
Y333563D01*
Y328839D02*
X376870D01*
X371925Y313196D02*
X377681D01*
Y324478D01*
X371925D02*
X377681D01*
X371925Y313196D02*
Y324478D01*
X449586Y409519D02*
Y415079D01*
Y409519D02*
X461052D01*
Y415079D01*
X449586D02*
X461052D01*
X473727Y425713D02*
X485010D01*
Y419956D02*
Y425713D01*
X473727Y419956D02*
X485010D01*
X473727D02*
Y425713D01*
X461040Y419071D02*
Y424630D01*
X449575D02*
X461040D01*
X449575Y419071D02*
Y424630D01*
Y419071D02*
X461040D01*
X507087Y301575D02*
X511811D01*
Y292126D02*
Y301575D01*
X507087Y292126D02*
X511811D01*
X507087D02*
Y301575D01*
X438189Y265354D02*
Y274803D01*
X442913D01*
Y265354D02*
Y274803D01*
X438189Y265354D02*
X442913D01*
X418480Y247023D02*
Y258489D01*
X424040D01*
Y247023D02*
Y258489D01*
X418480Y247023D02*
X424040D01*
X414543Y302929D02*
Y314394D01*
X420103D01*
Y302929D02*
Y314394D01*
X414543Y302929D02*
X420103D01*
X457480Y315354D02*
Y320079D01*
X448032Y315354D02*
X457480D01*
X448032D02*
Y320079D01*
X457480D01*
X419685Y272835D02*
Y282283D01*
X414961Y272835D02*
X419685D01*
X414961D02*
Y282283D01*
X419685D01*
X281496Y298890D02*
Y313079D01*
X271654Y298890D02*
X281496D01*
X271654D02*
Y313079D01*
X281496D01*
X382858Y357555D02*
Y369020D01*
X388418D01*
Y357555D02*
Y369020D01*
X382858Y357555D02*
X388418D01*
X342126Y283071D02*
X346850D01*
Y292520D01*
X342126D02*
X346850D01*
X342126Y283071D02*
Y292520D01*
X449114Y252264D02*
X458563D01*
X449114Y247539D02*
Y252264D01*
Y247539D02*
X458563D01*
Y252264D01*
X430807Y248917D02*
X435335D01*
Y257579D01*
X430807D02*
X435335D01*
X430807Y248917D02*
Y257579D01*
X495669Y254331D02*
X505118D01*
X495669Y249606D02*
Y254331D01*
Y249606D02*
X505118D01*
Y254331D01*
X462205Y215453D02*
X466929D01*
Y225098D01*
X462205D02*
X466929D01*
X462205Y215453D02*
Y225098D01*
X414543Y297071D02*
X420103D01*
X414543Y285606D02*
Y297071D01*
Y285606D02*
X420103D01*
Y297071D01*
X341339Y332283D02*
Y337008D01*
X331890D02*
X341339D01*
X331890Y332283D02*
Y337008D01*
Y332283D02*
X341339D01*
X414961Y320079D02*
X419685D01*
Y329528D01*
X414961D02*
X419685D01*
X414961Y320079D02*
Y329528D01*
X458268Y315354D02*
Y320079D01*
Y315354D02*
X467717D01*
Y320079D01*
X458268D02*
X467717D01*
X442347Y327051D02*
Y338516D01*
X436787Y327051D02*
X442347D01*
X436787D02*
Y338516D01*
X442347D01*
M02*
