G04*
G04 #@! TF.GenerationSoftware,Altium Limited,Altium Designer,23.4.1 (23)*
G04*
G04 Layer_Color=255*
%FSLAX25Y25*%
%MOIN*%
G70*
G04*
G04 #@! TF.SameCoordinates,3C4277FE-F450-4ED3-BB46-299587BC0101*
G04*
G04*
G04 #@! TF.FilePolarity,Positive*
G04*
G01*
G75*
%ADD35R,0.02953X0.03543*%
%ADD39R,0.03788X0.03681*%
%ADD92C,0.05512*%
%ADD93O,0.07087X0.03543*%
%ADD94R,0.05512X0.05512*%
%ADD95C,0.05906*%
%ADD96R,0.05906X0.05906*%
%ADD97C,0.05984*%
%ADD98C,0.05693*%
%ADD99C,0.11870*%
D35*
X471654Y491142D02*
D03*
X471555Y483169D02*
D03*
X476378Y491142D02*
D03*
X476280Y483169D02*
D03*
D39*
X481201Y456867D02*
D03*
X490551D02*
D03*
X472343Y456890D02*
D03*
X447638Y456928D02*
D03*
X456791D02*
D03*
X438287Y456965D02*
D03*
X472343Y462523D02*
D03*
X438287Y462598D02*
D03*
X456791Y462561D02*
D03*
X447638D02*
D03*
X481201Y462500D02*
D03*
X490551D02*
D03*
D92*
X449213Y194095D02*
D03*
X439370D02*
D03*
X459055D02*
D03*
D93*
X257752Y153220D02*
D03*
Y127236D02*
D03*
X519587Y166732D02*
D03*
Y192717D02*
D03*
D94*
X429528Y194095D02*
D03*
D95*
X356890Y341142D02*
D03*
Y366732D02*
D03*
X327756Y325787D02*
D03*
X345472D02*
D03*
Y300197D02*
D03*
X374606Y341142D02*
D03*
D96*
X327756Y300197D02*
D03*
X374606Y366732D02*
D03*
D97*
X381890Y490394D02*
D03*
X376890Y384409D02*
D03*
X386890D02*
D03*
D98*
X296772Y363465D02*
D03*
X306772D02*
D03*
D99*
X326772Y383465D02*
D03*
X286772D02*
D03*
M02*
