G04*
G04 #@! TF.GenerationSoftware,Altium Limited,Altium Designer,23.4.1 (23)*
G04*
G04 Layer_Color=32768*
%FSLAX25Y25*%
%MOIN*%
G70*
G04*
G04 #@! TF.SameCoordinates,3C4277FE-F450-4ED3-BB46-299587BC0101*
G04*
G04*
G04 #@! TF.FilePolarity,Positive*
G04*
G01*
G75*
%ADD11C,0.00787*%
D11*
X483933Y136993D02*
Y153970D01*
X494020D01*
Y136993D02*
Y153970D01*
X483933Y136993D02*
X494020D01*
X332480Y168976D02*
X348622D01*
Y148346D02*
Y168976D01*
X332480Y148346D02*
X348622D01*
X332480D02*
Y168976D01*
X299181Y340622D02*
X316158D01*
Y330535D02*
Y340622D01*
X299181Y330535D02*
X316158D01*
X299181D02*
Y340622D01*
X283039Y128811D02*
X300016D01*
Y118724D02*
Y128811D01*
X283039Y118724D02*
X300016D01*
X283039D02*
Y128811D01*
X457256Y155516D02*
Y170886D01*
Y155516D02*
X479319D01*
Y170886D01*
X457256D02*
X479319D01*
X350378Y127882D02*
X367355D01*
X350378D02*
Y137969D01*
X367355D01*
Y127882D02*
Y137969D01*
X310516Y153642D02*
X316815D01*
Y167421D01*
X310516D02*
X316815D01*
X310516Y153642D02*
Y167421D01*
X296343Y153642D02*
X302642D01*
Y167421D01*
X296343D02*
X302642D01*
X296343Y153642D02*
Y167421D01*
X282563Y153248D02*
X288862D01*
Y167027D01*
X282563D02*
X288862D01*
X282563Y153248D02*
Y167027D01*
X305874Y144559D02*
X322851D01*
Y134472D02*
Y144559D01*
X305874Y134472D02*
X322851D01*
X305874D02*
Y144559D01*
X469095Y180315D02*
Y203740D01*
X419488D02*
X469095D01*
X419488Y180315D02*
Y203740D01*
Y180315D02*
X469095D01*
X337004Y194571D02*
X359067D01*
Y179200D02*
Y194571D01*
X337004Y179200D02*
X359067D01*
X337004D02*
Y194571D01*
X367645Y149181D02*
Y166158D01*
X377733D01*
Y149181D02*
Y166158D01*
X367645Y149181D02*
X377733D01*
X283055Y134181D02*
X300032D01*
X283055D02*
Y144268D01*
X300032D01*
Y134181D02*
Y144268D01*
X392449Y149181D02*
Y166158D01*
X402536D01*
Y149181D02*
Y166158D01*
X392449Y149181D02*
X402536D01*
M02*
