G04*
G04 #@! TF.GenerationSoftware,Altium Limited,Altium Designer,23.4.1 (23)*
G04*
G04 Layer_Color=8388736*
%FSLAX25Y25*%
%MOIN*%
G70*
G04*
G04 #@! TF.SameCoordinates,3C4277FE-F450-4ED3-BB46-299587BC0101*
G04*
G04*
G04 #@! TF.FilePolarity,Negative*
G04*
G01*
G75*
%ADD18R,0.04724X0.01181*%
%ADD19R,0.01181X0.04724*%
%ADD26R,0.06150X0.05542*%
G04:AMPARAMS|DCode=28|XSize=9.45mil|YSize=23.62mil|CornerRadius=1.98mil|HoleSize=0mil|Usage=FLASHONLY|Rotation=0.000|XOffset=0mil|YOffset=0mil|HoleType=Round|Shape=RoundedRectangle|*
%AMROUNDEDRECTD28*
21,1,0.00945,0.01965,0,0,0.0*
21,1,0.00548,0.02362,0,0,0.0*
1,1,0.00397,0.00274,-0.00983*
1,1,0.00397,-0.00274,-0.00983*
1,1,0.00397,-0.00274,0.00983*
1,1,0.00397,0.00274,0.00983*
%
%ADD28ROUNDEDRECTD28*%
G04:AMPARAMS|DCode=29|XSize=23.62mil|YSize=9.45mil|CornerRadius=1.98mil|HoleSize=0mil|Usage=FLASHONLY|Rotation=0.000|XOffset=0mil|YOffset=0mil|HoleType=Round|Shape=RoundedRectangle|*
%AMROUNDEDRECTD29*
21,1,0.02362,0.00548,0,0,0.0*
21,1,0.01965,0.00945,0,0,0.0*
1,1,0.00397,0.00983,-0.00274*
1,1,0.00397,-0.00983,-0.00274*
1,1,0.00397,-0.00983,0.00274*
1,1,0.00397,0.00983,0.00274*
%
%ADD29ROUNDEDRECTD29*%
%ADD30R,0.05542X0.06150*%
%ADD31R,0.03681X0.03788*%
%ADD32R,0.03772X0.03591*%
%ADD33R,0.03543X0.02953*%
%ADD35R,0.02953X0.03543*%
%ADD37R,0.03591X0.03772*%
%ADD39R,0.03788X0.03681*%
G04:AMPARAMS|DCode=41|XSize=57.64mil|YSize=14.8mil|CornerRadius=7.4mil|HoleSize=0mil|Usage=FLASHONLY|Rotation=270.000|XOffset=0mil|YOffset=0mil|HoleType=Round|Shape=RoundedRectangle|*
%AMROUNDEDRECTD41*
21,1,0.05764,0.00000,0,0,270.0*
21,1,0.04284,0.01480,0,0,270.0*
1,1,0.01480,0.00000,-0.02142*
1,1,0.01480,0.00000,0.02142*
1,1,0.01480,0.00000,0.02142*
1,1,0.01480,0.00000,-0.02142*
%
%ADD41ROUNDEDRECTD41*%
%ADD43R,0.02756X0.02559*%
%ADD44R,0.06903X0.11434*%
%ADD46R,0.04724X0.04724*%
G04:AMPARAMS|DCode=48|XSize=71.82mil|YSize=24.33mil|CornerRadius=12.17mil|HoleSize=0mil|Usage=FLASHONLY|Rotation=180.000|XOffset=0mil|YOffset=0mil|HoleType=Round|Shape=RoundedRectangle|*
%AMROUNDEDRECTD48*
21,1,0.07182,0.00000,0,0,180.0*
21,1,0.04749,0.02433,0,0,180.0*
1,1,0.02433,-0.02375,0.00000*
1,1,0.02433,0.02375,0.00000*
1,1,0.02433,0.02375,0.00000*
1,1,0.02433,-0.02375,0.00000*
%
%ADD48ROUNDEDRECTD48*%
%ADD49R,0.07182X0.02433*%
%ADD50R,0.03937X0.02953*%
%ADD54R,0.01181X0.04724*%
%ADD55R,0.01480X0.05764*%
%ADD57R,0.03701X0.11772*%
%ADD58R,0.03937X0.06693*%
%ADD59R,0.07874X0.06299*%
%ADD60R,0.06299X0.08268*%
%ADD61R,0.06102X0.02362*%
%ADD62R,0.06299X0.07087*%
%ADD63R,0.08268X0.08268*%
%ADD64R,0.12402X0.06496*%
%ADD65R,0.03937X0.04528*%
%ADD66R,0.04134X0.04331*%
%ADD67R,0.05512X0.03150*%
%ADD68R,0.04331X0.04134*%
%ADD69R,0.04528X0.03937*%
%ADD70R,0.02008X0.03386*%
%ADD71R,0.11417X0.05315*%
%ADD72R,0.05709X0.05118*%
%ADD73R,0.04921X0.04331*%
%ADD74R,0.06299X0.04331*%
%ADD75R,0.05906X0.08268*%
%ADD76C,0.06299*%
%ADD77O,0.07874X0.04331*%
%ADD78R,0.06299X0.06299*%
%ADD79C,0.06693*%
%ADD80R,0.06693X0.06693*%
%ADD81C,0.06772*%
%ADD82C,0.06480*%
%ADD83C,0.00787*%
%ADD84C,0.12658*%
%ADD85C,0.05787*%
%ADD86C,0.03150*%
%ADD87C,0.01968*%
G36*
X336516Y164469D02*
Y164508D01*
X336546Y164580D01*
X336601Y164635D01*
X336673Y164665D01*
X336713D01*
Y164665D01*
X339075D01*
X339075Y168110D01*
Y168149D01*
X339105Y168222D01*
X339160Y168277D01*
X339232Y168307D01*
X339272D01*
Y168307D01*
X339665Y168307D01*
X339704Y168307D01*
X339777Y168277D01*
X339832Y168222D01*
X339862Y168149D01*
X339862Y168110D01*
X339862Y168110D01*
X339862Y166240D01*
X341240D01*
Y168110D01*
X341240Y168149D01*
X341270Y168222D01*
X341325Y168277D01*
X341398Y168307D01*
X341437Y168307D01*
Y168307D01*
X341831Y168307D01*
X341870D01*
X341942Y168277D01*
X341998Y168222D01*
X342027Y168149D01*
Y168110D01*
X342028Y168110D01*
Y164665D01*
X344390Y164665D01*
X344429D01*
X344501Y164635D01*
X344557Y164580D01*
X344587Y164508D01*
Y164469D01*
X344587D01*
X344587Y153051D01*
Y153012D01*
X344557Y152940D01*
X344501Y152884D01*
X344429Y152854D01*
X344390D01*
X344390D01*
X342028D01*
X342027Y149213D01*
Y149173D01*
X341998Y149101D01*
X341942Y149046D01*
X341870Y149016D01*
X341831D01*
X341831Y149016D01*
X341437D01*
X341398Y149016D01*
X341325Y149046D01*
X341270Y149101D01*
X341240Y149173D01*
X341240Y149213D01*
D01*
X341240Y151083D01*
X339862D01*
X339862Y149213D01*
X339862Y149173D01*
X339832Y149101D01*
X339777Y149046D01*
X339704Y149016D01*
X339665D01*
D01*
X339272D01*
X339232D01*
X339160Y149046D01*
X339105Y149101D01*
X339075Y149173D01*
Y149213D01*
Y149213D01*
Y152657D01*
X336713D01*
X336673D01*
X336601Y152687D01*
X336546Y152743D01*
X336516Y152815D01*
Y152854D01*
Y152854D01*
X336516Y164469D01*
D02*
G37*
D18*
X452756Y297244D02*
D03*
X498031Y299213D02*
D03*
Y297244D02*
D03*
X452756Y277559D02*
D03*
Y299213D02*
D03*
Y295276D02*
D03*
Y293307D02*
D03*
Y291339D02*
D03*
Y289370D02*
D03*
Y287402D02*
D03*
Y285433D02*
D03*
Y283465D02*
D03*
Y281496D02*
D03*
Y279528D02*
D03*
Y275591D02*
D03*
Y273622D02*
D03*
Y271654D02*
D03*
Y269685D02*
D03*
X498031D02*
D03*
Y271654D02*
D03*
Y273622D02*
D03*
Y275591D02*
D03*
Y277559D02*
D03*
Y279528D02*
D03*
Y281496D02*
D03*
Y283465D02*
D03*
Y285433D02*
D03*
Y287402D02*
D03*
Y289370D02*
D03*
Y291339D02*
D03*
Y293307D02*
D03*
Y295276D02*
D03*
D19*
X468504Y307087D02*
D03*
X490157Y261811D02*
D03*
X464567D02*
D03*
X460630Y307087D02*
D03*
X462598D02*
D03*
X488189Y261811D02*
D03*
X462598D02*
D03*
X460630D02*
D03*
X466535D02*
D03*
X468504D02*
D03*
X470472D02*
D03*
X472441D02*
D03*
X474409D02*
D03*
X476378D02*
D03*
X478346D02*
D03*
X480315D02*
D03*
X482283D02*
D03*
X484252D02*
D03*
X486220D02*
D03*
X490157Y307087D02*
D03*
X488189D02*
D03*
X486220D02*
D03*
X484252D02*
D03*
X482283D02*
D03*
X480315D02*
D03*
X478346D02*
D03*
X476378D02*
D03*
X472441D02*
D03*
X470472D02*
D03*
X466535D02*
D03*
X464567D02*
D03*
D26*
X488976Y141732D02*
D03*
Y149230D02*
D03*
X372689Y153921D02*
D03*
Y161418D02*
D03*
X397492Y153921D02*
D03*
Y161418D02*
D03*
D28*
X337598Y167126D02*
D03*
Y150197D02*
D03*
X343504D02*
D03*
Y167126D02*
D03*
D29*
X334055Y165551D02*
D03*
Y163583D02*
D03*
Y161614D02*
D03*
Y159646D02*
D03*
Y157677D02*
D03*
Y155709D02*
D03*
Y153740D02*
D03*
Y151772D02*
D03*
X347047D02*
D03*
Y153740D02*
D03*
Y155709D02*
D03*
Y157677D02*
D03*
Y159646D02*
D03*
Y161614D02*
D03*
Y163583D02*
D03*
Y165551D02*
D03*
D30*
X303921Y335579D02*
D03*
X311418D02*
D03*
X287779Y123768D02*
D03*
X295276D02*
D03*
X362615Y132925D02*
D03*
X355117D02*
D03*
X310613Y139516D02*
D03*
X318111D02*
D03*
X295292Y139224D02*
D03*
X287795D02*
D03*
D31*
X482185Y422835D02*
D03*
X476552D02*
D03*
D32*
X452445Y421850D02*
D03*
X452457Y412299D02*
D03*
X458181D02*
D03*
X458169Y421850D02*
D03*
D33*
X509449Y299213D02*
D03*
X417323Y327165D02*
D03*
X344488Y290157D02*
D03*
X417323Y275197D02*
D03*
X440551Y272441D02*
D03*
X509449Y294488D02*
D03*
X440551Y267717D02*
D03*
X417323Y279921D02*
D03*
X344488Y285433D02*
D03*
X417323Y322441D02*
D03*
D35*
X502756Y251969D02*
D03*
X455118Y317717D02*
D03*
X460630D02*
D03*
X456201Y249902D02*
D03*
X465354Y317717D02*
D03*
X334252Y334646D02*
D03*
X498032Y251969D02*
D03*
X451476Y249902D02*
D03*
X450394Y317717D02*
D03*
X369783Y331201D02*
D03*
X374508D02*
D03*
X338976Y334646D02*
D03*
D37*
X439567Y335646D02*
D03*
X421260Y249894D02*
D03*
X448032Y329982D02*
D03*
Y335707D02*
D03*
X421260Y255618D02*
D03*
X417323Y305799D02*
D03*
Y311524D02*
D03*
X385638Y360425D02*
D03*
Y366150D02*
D03*
X417323Y288476D02*
D03*
Y294201D02*
D03*
X439567Y329921D02*
D03*
D39*
X374803Y316020D02*
D03*
Y321654D02*
D03*
D41*
X279134Y302756D02*
D03*
X276575Y309213D02*
D03*
X274016D02*
D03*
Y302756D02*
D03*
D43*
X433071Y250591D02*
D03*
Y255906D02*
D03*
D44*
X473899Y163201D02*
D03*
X462676D02*
D03*
X342423Y186886D02*
D03*
X353647D02*
D03*
D46*
X313665Y164665D02*
D03*
Y156397D02*
D03*
X299492Y164665D02*
D03*
Y156397D02*
D03*
X285713Y164272D02*
D03*
Y156004D02*
D03*
D48*
X372204Y187008D02*
D03*
X379765Y190748D02*
D03*
D49*
Y183268D02*
D03*
D50*
X464567Y217323D02*
D03*
Y223228D02*
D03*
D54*
X474409Y307087D02*
D03*
D55*
X279134Y309213D02*
D03*
D57*
X282244Y243307D02*
D03*
Y259331D02*
D03*
X287244Y243307D02*
D03*
Y259331D02*
D03*
X292244Y243307D02*
D03*
Y259331D02*
D03*
X307244D02*
D03*
Y243307D02*
D03*
X302244Y259331D02*
D03*
Y243307D02*
D03*
X297244Y259331D02*
D03*
Y243307D02*
D03*
X277244Y259331D02*
D03*
Y243307D02*
D03*
D58*
X453445Y474409D02*
D03*
X457776Y473622D02*
D03*
X462106Y474409D02*
D03*
X466437Y475197D02*
D03*
X470768Y474409D02*
D03*
X475098Y475197D02*
D03*
X479429Y474409D02*
D03*
X483760D02*
D03*
D59*
X480524Y433705D02*
D03*
X458169Y433858D02*
D03*
D60*
X435138Y489567D02*
D03*
X486909Y485630D02*
D03*
D61*
X268283Y145346D02*
D03*
Y142787D02*
D03*
Y140228D02*
D03*
Y137669D02*
D03*
Y135110D02*
D03*
X509055Y174606D02*
D03*
Y177165D02*
D03*
Y179724D02*
D03*
Y182283D02*
D03*
Y184843D02*
D03*
D62*
X267398Y152827D02*
D03*
Y127630D02*
D03*
X509941Y167126D02*
D03*
Y192323D02*
D03*
D63*
X257752Y144953D02*
D03*
Y135504D02*
D03*
X519587Y175000D02*
D03*
Y184449D02*
D03*
D64*
X320472Y111713D02*
D03*
Y124508D02*
D03*
X338189Y111713D02*
D03*
Y124508D02*
D03*
X296063Y194193D02*
D03*
Y181398D02*
D03*
X273228Y194193D02*
D03*
Y181398D02*
D03*
X403150Y184153D02*
D03*
Y196949D02*
D03*
X472441Y129232D02*
D03*
Y116437D02*
D03*
X490551Y116437D02*
D03*
Y129232D02*
D03*
X455118Y116437D02*
D03*
Y129232D02*
D03*
X403150Y112894D02*
D03*
Y125689D02*
D03*
X383071Y112500D02*
D03*
Y125295D02*
D03*
X319685Y181398D02*
D03*
Y194193D02*
D03*
D65*
X473228Y334646D02*
D03*
X380118Y258268D02*
D03*
X457087Y334646D02*
D03*
X468110D02*
D03*
X385236Y258268D02*
D03*
X462205Y334646D02*
D03*
D66*
X467569Y250148D02*
D03*
X462451D02*
D03*
D67*
X403543Y258268D02*
D03*
X393701Y265748D02*
D03*
X403543D02*
D03*
X393701Y258268D02*
D03*
Y262008D02*
D03*
D68*
X292520Y303740D02*
D03*
X403543Y250591D02*
D03*
X432874Y272638D02*
D03*
X403543Y245473D02*
D03*
X292520Y308858D02*
D03*
X432874Y267520D02*
D03*
D69*
X355118Y280315D02*
D03*
X306693Y349606D02*
D03*
Y344685D02*
D03*
X355118Y285433D02*
D03*
D70*
X471130Y147984D02*
D03*
X469161D02*
D03*
X467193D02*
D03*
Y142197D02*
D03*
X469161D02*
D03*
X471130D02*
D03*
D71*
X448032Y138583D02*
D03*
Y150394D02*
D03*
D72*
X490157Y251969D02*
D03*
X483465D02*
D03*
D73*
X301969Y225197D02*
D03*
X357087Y325590D02*
D03*
Y331102D02*
D03*
X301969Y230709D02*
D03*
D74*
X464567Y228937D02*
D03*
Y236417D02*
D03*
D75*
X397638Y290945D02*
D03*
Y303543D02*
D03*
X375984Y290945D02*
D03*
Y303543D02*
D03*
D76*
X449213Y194095D02*
D03*
X439370D02*
D03*
X459055D02*
D03*
D77*
X257752Y153220D02*
D03*
Y127236D02*
D03*
X519587Y166732D02*
D03*
Y192717D02*
D03*
D78*
X429528Y194095D02*
D03*
D79*
X356890Y341142D02*
D03*
Y366732D02*
D03*
X327756Y325787D02*
D03*
X345472D02*
D03*
Y300197D02*
D03*
X374606Y341142D02*
D03*
D80*
X327756Y300197D02*
D03*
X374606Y366732D02*
D03*
D81*
X381890Y490394D02*
D03*
X376890Y384409D02*
D03*
X386890D02*
D03*
D82*
X296772Y363465D02*
D03*
X306772D02*
D03*
D83*
X515354Y103937D02*
D03*
X259055Y104724D02*
D03*
X259843Y484646D02*
D03*
X513780D02*
D03*
D84*
X326772Y383465D02*
D03*
X286772D02*
D03*
D85*
X379134Y143701D02*
D03*
X397638Y144095D02*
D03*
X493307Y161811D02*
D03*
X509055Y146457D02*
D03*
Y156693D02*
D03*
X495669Y184646D02*
D03*
X455118Y102756D02*
D03*
X276772Y134646D02*
D03*
X366929Y174016D02*
D03*
X362992Y166142D02*
D03*
X363386Y118110D02*
D03*
X351181Y173622D02*
D03*
X306299Y124803D02*
D03*
X339764Y137402D02*
D03*
X321260Y99213D02*
D03*
X339370Y98819D02*
D03*
X296457Y109449D02*
D03*
X433071Y101181D02*
D03*
X423228D02*
D03*
X403937Y98819D02*
D03*
X331496Y136221D02*
D03*
D86*
X477953Y150394D02*
D03*
X362158Y184646D02*
D03*
X306693Y151575D02*
D03*
X327953Y145669D02*
D03*
X333465Y144095D02*
D03*
X327559Y156933D02*
D03*
X327362Y162795D02*
D03*
X292913Y155512D02*
D03*
X321457Y165551D02*
D03*
D87*
X340551Y163681D02*
D03*
X337500Y160728D02*
D03*
X340551D02*
D03*
X343602D02*
D03*
X337500Y156594D02*
D03*
X340551D02*
D03*
X343602D02*
D03*
X340551Y153642D02*
D03*
M02*
