G04*
G04 #@! TF.GenerationSoftware,Altium Limited,Altium Designer,23.4.1 (23)*
G04*
G04 Layer_Physical_Order=3*
G04 Layer_Color=128*
%FSLAX25Y25*%
%MOIN*%
G70*
G04*
G04 #@! TF.SameCoordinates,C2C47735-DA82-4273-8B30-92E5B03AA998*
G04*
G04*
G04 #@! TF.FilePolarity,Negative*
G04*
G01*
G75*
%ADD104C,0.04000*%
%ADD105C,0.08134*%
%ADD106O,0.08724X0.05969*%
%ADD107C,0.07898*%
%ADD108C,0.08016*%
%ADD109C,0.07504*%
%ADD110C,0.16598*%
%ADD111C,0.11913*%
%ADD112C,0.05200*%
%ADD113C,0.06800*%
%ADD114C,0.05181*%
D104*
X526772Y92520D02*
Y497638D01*
X246850D02*
X526772D01*
X246850Y92520D02*
Y497638D01*
Y92520D02*
X526772D01*
D105*
X426968Y195374D02*
D03*
D106*
X257752Y153220D02*
D03*
Y127236D02*
D03*
X519587Y166732D02*
D03*
Y192717D02*
D03*
D107*
X345472Y325787D02*
D03*
Y300197D02*
D03*
X374606Y366732D02*
D03*
Y341142D02*
D03*
D108*
X376890Y384409D02*
D03*
X386890D02*
D03*
D109*
X306772Y363465D02*
D03*
D110*
X515354Y103937D02*
D03*
X259055Y104724D02*
D03*
X259843Y484646D02*
D03*
X513780D02*
D03*
D111*
X326772Y383465D02*
D03*
X286772D02*
D03*
D112*
X288976Y269685D02*
D03*
X409055Y285827D02*
D03*
X487992Y468996D02*
D03*
X320866Y263386D02*
D03*
X510039Y319291D02*
D03*
X488976Y333465D02*
D03*
X493307Y314961D02*
D03*
X475984Y365551D02*
D03*
X482677Y345571D02*
D03*
X447736Y474311D02*
D03*
X447638Y468701D02*
D03*
X462106Y467815D02*
D03*
X479429Y468209D02*
D03*
X470768Y468286D02*
D03*
X477362Y240846D02*
D03*
X477461Y255807D02*
D03*
X458661Y294488D02*
D03*
X305512Y291339D02*
D03*
X476772Y300000D02*
D03*
X438189Y287008D02*
D03*
X444094Y281496D02*
D03*
X292520Y280709D02*
D03*
Y297244D02*
D03*
X274016Y277559D02*
D03*
X314961Y251181D02*
D03*
X444882Y257087D02*
D03*
X441339Y261811D02*
D03*
X516929Y294094D02*
D03*
X281102Y292126D02*
D03*
X482283Y317622D02*
D03*
D113*
X281890Y228346D02*
D03*
X493307Y161811D02*
D03*
X509055Y146457D02*
D03*
Y156693D02*
D03*
X366929Y174016D02*
D03*
X351181Y173622D02*
D03*
X306299Y124803D02*
D03*
X339764Y137402D02*
D03*
X433071Y101181D02*
D03*
X423228D02*
D03*
X444685Y421850D02*
D03*
X371654Y258268D02*
D03*
X411417Y261417D02*
D03*
X355118Y273622D02*
D03*
X385827Y316142D02*
D03*
X438189Y450394D02*
D03*
X490551Y450350D02*
D03*
X481102D02*
D03*
X472441Y450394D02*
D03*
X447638D02*
D03*
X456693D02*
D03*
X482283Y416142D02*
D03*
X509449Y305118D02*
D03*
X439567Y341732D02*
D03*
X455118Y324803D02*
D03*
X502854Y245472D02*
D03*
X473228Y250000D02*
D03*
X466339Y483169D02*
D03*
X433071Y244980D02*
D03*
X456299Y243307D02*
D03*
X473228Y340945D02*
D03*
D114*
X362158Y184646D02*
D03*
X306693Y151575D02*
D03*
X327953Y145669D02*
D03*
X333465Y144095D02*
D03*
X327559Y156933D02*
D03*
X327362Y162795D02*
D03*
X292913Y155512D02*
D03*
X321457Y165551D02*
D03*
M02*
