M48
;Layer_Color=9474304
;FILE_FORMAT=2:5
INCH,LZ
;TYPE=PLATED
T1F00S00C0.00787
T2F00S00C0.01181
T3F00S00C0.01200
T5F00S00C0.02800
T6F00S00C0.03504
T7F00S00C0.03898
T8F00S00C0.04016
T9F00S00C0.04134
T10F00S00C0.07913
;TYPE=NON_PLATED
T11F00S00C0.12598
%
T01
X0340551Y0153642
Y0156594
X03375
Y0160728
X0340551
Y0163681
X0343602Y0160728
Y0156594
T02
X0292913Y0155512
X0306693Y0151575
X0327953Y0145669
X0333465Y0144095
X0477953Y0150394
X0362158Y0184646
X0327362Y0162795
X0327559Y0156933
X0321457Y0165551
T03
X0477362Y0240846
X0477461Y0255807
X0494882Y024498
X0509449Y0290157
X0516929Y0294094
X0476772Y03
X0462598Y0301181
X0458661Y0294488
Y0277559
X0444094Y0281496
X0438189Y0287008
X0432677Y0277953
X0417323Y0270472
X0409055Y0285827
X0387008Y0265748
X0399213Y0222047
X0443701Y0245768
X0444882Y0257087
X0441339Y0261811
X0462598Y0245276
X0464567Y0211417
X0314961Y0251181
X0320866Y0263386
X0317717Y0300394
X0305512Y0291339
X029252Y0297244
X0281102Y0292126
X0274016Y0277559
X029252Y0280709
X0288976Y0269685
X028937Y0229528
X0301969Y021811
X0290945Y0322047
X0276673Y0322736
X032126Y0337008
X0357087Y0319291
X0347244Y0366929
X0417323Y0332677
X0446063Y0317717
X0457087Y0340157
X0452362Y0404823
X0447638Y0468701
X0462106Y0467815
X0470768Y0468286
X0479429Y0468209
X0475984Y0365551
X0482677Y0345571
X0488976Y0333465
X0482283Y0317622
X0493307Y0314961
X0510039Y0319291
X0487992Y0468996
X0480807Y0481693
X0481102Y0491339
X044439Y048622
X0447736Y0474311
T05
X0296457Y0109449
X0306299Y0124803
X0276772Y0134646
X0331496Y0136221
X0339764Y0137402
X033937Y0098819
X032126Y0099213
X0363386Y011811
X0379134Y0143701
X0397638Y0144095
X0403937Y0098819
X0423228Y0101181
X0433071
X0455118Y0102756
X0509055Y0146457
Y0156693
X0493307Y0161811
X0495669Y0184646
X0502854Y0245472
X0473228Y025
X0509449Y0305118
X0456299Y0243307
X0433071Y024498
X0411417Y0261417
X0371654Y0258268
X0355118Y0273622
X0351181Y0173622
X0366929Y0174016
X0362992Y0166142
X028189Y0228346
X0385827Y0316142
X0455118Y0324803
X0439567Y0341732
X0444685Y042185
X0447638Y0450394
X0456693
X0438189
X0472441
X0481102Y045035
X0490551
X0482283Y0416142
X0473228Y0340945
X0466339Y0483169
T06
X0296772Y0363465
X0306772
T07
X0327756Y0300197
X0345472
Y0325787
X0327756
X035689Y0341142
X0374606
Y0366732
X035689
T08
X037689Y0384409
X038689
X038189Y0490394
T09
X0426968Y0195374
X0436811
T10
X0286772Y0383465
X0326772
T11
X0259055Y0104724
X0515354Y0103937
X051378Y0484646
X0259843
M30
