G04*
G04 #@! TF.GenerationSoftware,Altium Limited,Altium Designer,23.4.1 (23)*
G04*
G04 Layer_Color=0*
%FSLAX25Y25*%
%MOIN*%
G70*
G04*
G04 #@! TF.SameCoordinates,C2C47735-DA82-4273-8B30-92E5B03AA998*
G04*
G04*
G04 #@! TF.FilePolarity,Positive*
G04*
G01*
G75*
%ADD11C,0.00394*%
D11*
X488976Y143512D02*
Y147450D01*
X487008Y145481D02*
X490945D01*
X338583Y158661D02*
X342520D01*
X340551Y156693D02*
Y160630D01*
X305701Y335579D02*
X309638D01*
X307669Y333610D02*
Y337547D01*
X289559Y123768D02*
X293496D01*
X291528Y121799D02*
Y125736D01*
X468288Y161232D02*
Y165169D01*
X466319Y163201D02*
X470256D01*
X356898Y132925D02*
X360835D01*
X358866Y130957D02*
Y134894D01*
X311697Y160531D02*
X315634D01*
X313665Y158563D02*
Y162500D01*
X297524Y160531D02*
X301461D01*
X299492Y158563D02*
Y162500D01*
X283744Y160138D02*
X287681D01*
X285713Y158169D02*
Y162106D01*
X312394Y139516D02*
X316331D01*
X314362Y137547D02*
Y141484D01*
X375984Y185039D02*
Y188976D01*
X374016Y187008D02*
X377953D01*
X346067Y186886D02*
X350004D01*
X348035Y184917D02*
Y188854D01*
X372689Y155701D02*
Y159638D01*
X370720Y157669D02*
X374657D01*
X289575Y139224D02*
X293512D01*
X291543Y137256D02*
Y141193D01*
X397492Y155701D02*
Y159638D01*
X395524Y157669D02*
X399461D01*
X473425Y284449D02*
X477362D01*
X475394Y282480D02*
Y286417D01*
X446063Y332844D02*
X450000D01*
X448032Y330876D02*
Y334813D01*
X372146Y329232D02*
Y333169D01*
X370177Y331201D02*
X374114D01*
X372835Y318837D02*
X376772D01*
X374803Y316869D02*
Y320806D01*
X455319Y410331D02*
Y414268D01*
X453351Y412299D02*
X457288D01*
X477400Y422835D02*
X481337D01*
X479368Y420866D02*
Y424803D01*
X455307Y419882D02*
Y423819D01*
X453339Y421850D02*
X457276D01*
X507480Y296850D02*
X511417D01*
X509449Y294882D02*
Y298819D01*
X440551Y268110D02*
Y272047D01*
X438583Y270079D02*
X442520D01*
X421260Y250788D02*
Y254725D01*
X419291Y252756D02*
X423228D01*
X417323Y306693D02*
Y310630D01*
X415354Y308661D02*
X419291D01*
X452756Y315748D02*
Y319685D01*
X450787Y317717D02*
X454724D01*
X417323Y275590D02*
Y279527D01*
X415354Y277559D02*
X419291D01*
X276575Y304016D02*
Y307953D01*
X274606Y305985D02*
X278543D01*
X385638Y361319D02*
Y365256D01*
X383669Y363287D02*
X387606D01*
X342520Y287795D02*
X346457D01*
X344488Y285827D02*
Y289764D01*
X451870Y249902D02*
X455807D01*
X453839Y247933D02*
Y251870D01*
X431102Y253248D02*
X435039D01*
X433071Y251280D02*
Y255217D01*
X498425Y251969D02*
X502362D01*
X500394Y250000D02*
Y253937D01*
X462599Y220276D02*
X466536D01*
X464567Y218307D02*
Y222244D01*
X415354Y291339D02*
X419291D01*
X417323Y289370D02*
Y293307D01*
X336614Y332677D02*
Y336614D01*
X334646Y334646D02*
X338583D01*
X415354Y324803D02*
X419291D01*
X417323Y322835D02*
Y326772D01*
X462992Y315748D02*
Y319685D01*
X461024Y317717D02*
X464961D01*
X439567Y330815D02*
Y334752D01*
X437599Y332783D02*
X441536D01*
M02*
