G04*
G04 #@! TF.GenerationSoftware,Altium Limited,Altium Designer,23.4.1 (23)*
G04*
G04 Layer_Color=16711935*
%FSLAX25Y25*%
%MOIN*%
G70*
G04*
G04 #@! TF.SameCoordinates,C2C47735-DA82-4273-8B30-92E5B03AA998*
G04*
G04*
G04 #@! TF.FilePolarity,Negative*
G04*
G01*
G75*
%ADD36R,0.02953X0.03543*%
%ADD40R,0.03788X0.03681*%
%ADD76C,0.06988*%
%ADD77R,0.06988X0.06988*%
%ADD78O,0.07874X0.04331*%
%ADD79C,0.06693*%
%ADD80R,0.06693X0.06693*%
%ADD81C,0.06772*%
%ADD82C,0.06480*%
%ADD83C,0.00787*%
%ADD84C,0.12658*%
%ADD85C,0.05787*%
%ADD86C,0.03150*%
%ADD87C,0.01968*%
%ADD116C,0.05800*%
D36*
X471654Y491142D02*
D03*
X471555Y483169D02*
D03*
X476378Y491142D02*
D03*
X476280Y483169D02*
D03*
D40*
X481201Y456867D02*
D03*
X490551D02*
D03*
X472343Y456890D02*
D03*
X447638Y456928D02*
D03*
X456791D02*
D03*
X438287Y456965D02*
D03*
X472343Y462523D02*
D03*
X438287Y462598D02*
D03*
X456791Y462561D02*
D03*
X447638D02*
D03*
X481201Y462500D02*
D03*
X490551D02*
D03*
D76*
X436811Y195374D02*
D03*
D77*
X426968D02*
D03*
D78*
X257752Y153220D02*
D03*
Y127236D02*
D03*
X519587Y166732D02*
D03*
Y192717D02*
D03*
D79*
X356890Y341142D02*
D03*
Y366732D02*
D03*
X327756Y325787D02*
D03*
X345472D02*
D03*
Y300197D02*
D03*
X374606Y341142D02*
D03*
D80*
X327756Y300197D02*
D03*
X374606Y366732D02*
D03*
D81*
X381890Y490394D02*
D03*
X376890Y384409D02*
D03*
X386890D02*
D03*
D82*
X296772Y363465D02*
D03*
X306772D02*
D03*
D83*
X515354Y103937D02*
D03*
X259055Y104724D02*
D03*
X259843Y484646D02*
D03*
X513780D02*
D03*
D84*
X326772Y383465D02*
D03*
X286772D02*
D03*
D85*
X397638Y144095D02*
D03*
X379134Y143701D02*
D03*
X493307Y161811D02*
D03*
X509055Y146457D02*
D03*
Y156693D02*
D03*
X495669Y184646D02*
D03*
X455118Y102756D02*
D03*
X276772Y134646D02*
D03*
X366929Y174016D02*
D03*
X362992Y166142D02*
D03*
X363386Y118110D02*
D03*
X351181Y173622D02*
D03*
X306299Y124803D02*
D03*
X339764Y137402D02*
D03*
X321260Y99213D02*
D03*
X339370Y98819D02*
D03*
X296457Y109449D02*
D03*
X433071Y101181D02*
D03*
X423228D02*
D03*
X403937Y98819D02*
D03*
X331496Y136221D02*
D03*
D86*
X477953Y150394D02*
D03*
X362158Y184646D02*
D03*
X306693Y151575D02*
D03*
X327953Y145669D02*
D03*
X333465Y144095D02*
D03*
X327559Y156933D02*
D03*
X327362Y162795D02*
D03*
X292913Y155512D02*
D03*
X321457Y165551D02*
D03*
D87*
X340551Y163681D02*
D03*
X337500Y160728D02*
D03*
X340551D02*
D03*
X343602D02*
D03*
X337500Y156594D02*
D03*
X340551D02*
D03*
X343602D02*
D03*
X340551Y153642D02*
D03*
D116*
X385827Y316142D02*
D03*
M02*
